<svg width="73" height="76" viewBox="0 0 73 76" fill="none" xmlns="http://www.w3.org/2000/svg">
<path d="M54.67 0H18C8.05887 0 0 8.05887 0 18V57.17C0 67.1111 8.05887 75.17 18 75.17H54.67C64.6111 75.17 72.67 67.1111 72.67 57.17V18C72.67 8.05887 64.6111 0 54.67 0Z" fill="#FECA47"/>
<path d="M11 50.3495V47.0095C11.014 46.235 11.2394 45.4792 11.6519 44.8236C12.0643 44.1679 12.648 43.6375 13.34 43.2895C15.2208 42.2496 17.3531 41.7511 19.5 41.8495C19.96 41.8495 20.41 41.8495 20.83 41.8495C21.239 41.866 21.6466 41.9094 22.05 41.9795C21.5722 42.7037 21.1986 43.4913 20.94 44.3195C20.6906 45.1464 20.5659 46.0059 20.57 46.8695V50.3495H11ZM23.75 50.3495V46.8995C23.7411 45.7915 24.0689 44.707 24.69 43.7895C25.3755 42.7873 26.2692 41.9448 27.31 41.3195C28.5665 40.5621 29.9428 40.0244 31.38 39.7295C33.0615 39.3618 34.7789 39.184 36.5 39.1995C38.2444 39.1821 39.9852 39.3599 41.69 39.7295C43.124 40.0244 44.4971 40.5621 45.75 41.3195C46.7895 41.9393 47.6777 42.7831 48.35 43.7895C48.9459 44.7167 49.2586 45.7974 49.25 46.8995V50.3495H23.75ZM52.44 50.3495V46.8995C52.4474 46.0213 52.3329 45.1463 52.1 44.2995C51.8796 43.4917 51.5428 42.7202 51.1 42.0095C51.4968 41.9404 51.8976 41.897 52.3 41.8795C52.71 41.8795 53.12 41.8795 53.54 41.8795C55.6864 41.7825 57.8188 42.2698 59.71 43.2895C60.406 43.6394 60.9919 44.1747 61.403 44.8364C61.8142 45.4981 62.0346 46.2605 62.04 47.0395V50.3495H52.44ZM19.5 39.7295C18.6569 39.7286 17.833 39.4775 17.1327 39.0081C16.4324 38.5387 15.8871 37.8721 15.5659 37.0926C15.2446 36.3131 15.1619 35.4558 15.3282 34.6293C15.4945 33.8028 15.9023 33.0441 16.5 32.4495C16.8938 32.0568 17.3619 31.7467 17.877 31.5372C18.3921 31.3277 18.9439 31.2231 19.5 31.2295C20.3369 31.2362 21.1533 31.4894 21.8473 31.9573C22.5413 32.4252 23.082 33.0872 23.402 33.8606C23.7221 34.6339 23.8072 35.4845 23.6467 36.3059C23.4863 37.1274 23.0875 37.8834 22.5 38.4795C22.1109 38.8792 21.6438 39.1946 21.1277 39.4061C20.6117 39.6177 20.0576 39.721 19.5 39.7095V39.7295ZM53.5 39.7295C52.6569 39.7286 51.833 39.4775 51.1327 39.0081C50.4324 38.5387 49.8871 37.8721 49.5659 37.0926C49.2446 36.3131 49.1619 35.4558 49.3282 34.6293C49.4945 33.8028 49.9023 33.0441 50.5 32.4495C50.8938 32.0568 51.3619 31.7467 51.877 31.5372C52.3921 31.3277 52.9439 31.2231 53.5 31.2295C54.3369 31.2362 55.1533 31.4894 55.8473 31.9573C56.5413 32.4252 57.082 33.0872 57.402 33.8606C57.7221 34.6339 57.8072 35.4845 57.6467 36.3059C57.4863 37.1274 57.0875 37.8834 56.5 38.4795C56.1109 38.8792 55.6438 39.1946 55.1277 39.4061C54.6117 39.6177 54.0576 39.721 53.5 39.7095V39.7295ZM36.5 37.5995C35.0469 37.5811 33.6449 37.0609 32.5315 36.127C31.4181 35.1932 30.6618 33.9031 30.3906 32.4755C30.1195 31.0478 30.3502 29.5703 31.0438 28.2933C31.7373 27.0163 32.851 26.0183 34.1961 25.4685C35.5412 24.9186 37.0351 24.8506 38.4246 25.2761C39.8141 25.7016 41.0138 26.5944 41.8204 27.8031C42.627 29.0119 42.9909 30.4623 42.8505 31.9087C42.7101 33.3551 42.074 34.7085 41.05 35.7395C40.4589 36.3426 39.7497 36.8173 38.9668 37.1339C38.1839 37.4505 37.3442 37.6022 36.5 37.5795V37.5995Z" fill="#2E62CC"/>
</svg>
