<svg width="112" height="116" viewBox="0 0 112 116" fill="none" xmlns="http://www.w3.org/2000/svg">
<path d="M86.6801 0H25C11.1929 0 0 11.1929 0 25V90.53C0 104.337 11.1929 115.53 25 115.53H86.6801C100.487 115.53 111.68 104.337 111.68 90.53V25C111.68 11.1929 100.487 0 86.6801 0Z" fill="white"/>
<path d="M76.5802 22.02C78.3902 22.68 78.7402 23.19 78.7402 25.18V82.02C78.7402 82.15 78.7402 82.28 78.7402 82.41C78.8018 82.8865 78.7194 83.3706 78.5037 83.8C78.2881 84.2295 77.9491 84.5846 77.5301 84.8199C77.1056 85.0452 76.6252 85.1433 76.1463 85.1025C75.6675 85.0617 75.2105 84.8838 74.8302 84.59C72.7602 83.33 70.6702 82.1 68.5802 80.87L54.7502 72.66C54.5619 72.5739 54.4049 72.4314 54.301 72.2523C54.1971 72.0731 54.1514 71.8662 54.1701 71.66C54.1701 59.74 54.1701 47.81 54.1701 35.89C54.1834 35.7113 54.235 35.5376 54.3213 35.3806C54.4075 35.2236 54.5264 35.087 54.6701 34.98C61.4301 30.8066 68.2002 26.6533 74.9802 22.52C75.3404 22.3265 75.711 22.153 76.0902 22L76.5802 22.02Z" fill="#2E62CC"/>
<path d="M34.4395 93.3C33.3095 92.74 32.1695 92.21 31.0595 91.62C29.5395 90.8 28.0595 89.95 26.5395 89.1C26.2588 88.9649 26.0088 88.7738 25.8049 88.5385C25.6009 88.3031 25.4474 88.0284 25.3537 87.7313C25.26 87.4343 25.2281 87.1212 25.2601 86.8114C25.292 86.5016 25.3871 86.2016 25.5395 85.93C27.8695 81.83 30.2396 77.75 32.5996 73.67C37.2896 74.67 42.0195 73.94 46.7795 74.28C46.6595 74.51 46.5695 74.72 46.4595 74.91C43.2295 80.52 39.9795 86.11 36.7695 91.73C36.3301 92.4916 35.6136 93.0541 34.7695 93.3H34.4395Z" fill="#2E62CC"/>
<path d="M16 46.81C16.264 46.1453 16.5817 45.5031 16.95 44.8899C17.2757 44.4045 17.7101 44.0018 18.2188 43.7136C18.7274 43.4254 19.2962 43.2598 19.88 43.23C21.13 43.16 22.4 43.23 23.63 43.23V64.0899C22.1487 64.0864 20.6691 63.9895 19.2 63.8C18.5255 63.6549 17.9012 63.3344 17.3903 62.8709C16.8793 62.4074 16.4998 61.8171 16.2899 61.16C16.1999 60.93 16.1 60.7 16 60.47V46.81Z" fill="#2E62CC"/>
<path d="M95.3306 54.56C95.0958 55.1428 94.6731 55.6304 94.1296 55.9457C93.5862 56.2609 92.953 56.3856 92.3306 56.3C90.4306 56.21 88.5206 56.3 86.6106 56.3C86.2884 56.326 85.9642 56.2856 85.6583 56.1813C85.3524 56.0769 85.0712 55.9108 84.8322 55.6933C84.5931 55.4758 84.4012 55.2115 84.2684 54.9167C84.1357 54.622 84.065 54.3032 84.0605 53.98C84.0678 53.6564 84.1408 53.3376 84.275 53.043C84.4092 52.7485 84.6018 52.4842 84.8412 52.2663C85.0806 52.0485 85.3617 51.8815 85.6676 51.7755C85.9735 51.6695 86.2977 51.6268 86.6206 51.65C88.5506 51.65 90.4805 51.65 92.4105 51.65C93.0415 51.5616 93.6833 51.7001 94.2217 52.0407C94.7601 52.3813 95.1602 52.902 95.3506 53.5099L95.3306 54.56Z" fill="#2E62CC"/>
<path d="M49.4706 69.52C49.2206 69.52 49.0205 69.52 48.8205 69.52C44.6905 69.52 40.5605 69.52 36.4305 69.52C34.5286 69.5015 32.69 68.8343 31.2189 67.6287C29.7477 66.423 28.7323 64.7512 28.3406 62.89C28.2225 62.284 28.1688 61.6672 28.1805 61.05C28.1805 56.05 28.1805 51.05 28.1805 46.05C28.09 44.345 28.5809 42.6599 29.5727 41.2702C30.5646 39.8805 31.9988 38.8686 33.6406 38.4C34.1833 38.2397 34.7448 38.1523 35.3105 38.14C39.9105 38.14 44.5106 38.14 49.1006 38.14H49.4706V69.52Z" fill="#2E62CC"/>
<path d="M88.8493 72.71C88.2902 72.494 87.7622 72.2048 87.2792 71.85C85.6892 70.34 84.1593 68.78 82.6293 67.22C82.4152 67.0046 82.2456 66.7492 82.1303 66.4683C82.0149 66.1874 81.9561 65.8865 81.957 65.5829C81.958 65.2792 82.0187 64.9788 82.1358 64.6986C82.2528 64.4184 82.4239 64.164 82.6393 63.95C82.8547 63.7359 83.11 63.5664 83.3909 63.4511C83.6718 63.3357 83.9726 63.2768 84.2763 63.2777C84.5799 63.2786 84.8805 63.3394 85.1607 63.4564C85.4408 63.5735 85.6951 63.7446 85.9092 63.96C87.4692 65.4933 89.0159 67.04 90.5492 68.6C90.8937 68.9181 91.1286 69.3372 91.2202 69.7971C91.3118 70.257 91.2555 70.7341 91.0592 71.16C90.8618 71.5914 90.553 71.9624 90.1646 72.2348C89.7761 72.5072 89.3221 72.6713 88.8493 72.71Z" fill="#2E62CC"/>
<path d="M84.5206 44.66C84.0339 44.7027 83.5459 44.5952 83.1222 44.3521C82.6984 44.1089 82.3593 43.7417 82.1506 43.3C81.9409 42.9088 81.86 42.4615 81.9193 42.0216C81.9785 41.5818 82.175 41.1718 82.4807 40.85C84.1007 39.15 85.7674 37.4833 87.4807 35.85C87.9226 35.4823 88.4862 35.2934 89.0604 35.3206C89.6346 35.3477 90.1779 35.5889 90.5831 35.9966C90.9883 36.4044 91.2262 36.9492 91.2498 37.5236C91.2735 38.098 91.0811 38.6604 90.7107 39.1C89.1007 40.8 87.4307 42.45 85.7107 44.1C85.3534 44.361 84.9494 44.5511 84.5206 44.66Z" fill="#2E62CC"/>
</svg>
