<svg width="614" height="608" viewBox="0 0 614 608" fill="none" xmlns="http://www.w3.org/2000/svg">
<g opacity="0.5">
<path d="M305.17 607.023V554.773L305.62 554.513L348.62 529.673V480.513L347.73 480.003L348.62 479.483V429.293L349.07 429.033L391.2 404.713L349.51 380.643L307 405.223V502.083C307.566 502.242 308.076 502.556 308.473 502.989C308.87 503.423 309.138 503.959 309.246 504.536C309.354 505.114 309.299 505.711 309.085 506.259C308.872 506.806 308.51 507.284 308.04 507.636C307.57 507.989 307.01 508.203 306.424 508.254C305.839 508.305 305.251 508.192 304.726 507.926C304.202 507.661 303.762 507.254 303.457 506.751C303.152 506.249 302.994 505.671 303 505.083C303.001 504.833 303.035 504.584 303.1 504.343L262.59 481.023L220.88 505.103L263.42 529.663V581.913L263.24 581.813L218.17 555.813V506.623L174.7 531.723V482.433C174.225 482.291 173.791 482.039 173.433 481.698C173.074 481.356 172.802 480.935 172.637 480.467C172.473 480 172.421 479.501 172.486 479.01C172.552 478.519 172.732 478.051 173.013 477.643C173.294 477.235 173.668 476.9 174.103 476.664C174.538 476.428 175.023 476.298 175.519 476.285C176.014 476.273 176.505 476.377 176.952 476.591C177.398 476.804 177.789 477.12 178.09 477.513L218.23 454.333V354.023L218.68 353.773L259.54 330.173C259.474 329.935 259.441 329.69 259.44 329.443C259.441 329.196 259.475 328.951 259.54 328.713L218.23 304.863V257.163C217.756 257.026 217.321 256.78 216.96 256.443L176.55 279.763V330.983L176.37 330.883L132.19 305.373L89.65 329.913V429.293L131.3 453.293V404.193L131.74 403.943L172.6 380.353C172.543 380.111 172.513 379.862 172.51 379.613C172.504 379.025 172.662 378.448 172.967 377.945C173.272 377.443 173.712 377.036 174.236 376.77C174.761 376.504 175.349 376.391 175.934 376.442C176.52 376.493 177.08 376.707 177.55 377.06C178.02 377.413 178.382 377.89 178.595 378.438C178.809 378.986 178.864 379.582 178.756 380.16C178.648 380.738 178.38 381.274 177.983 381.707C177.586 382.141 177.076 382.454 176.51 382.613V430.313L176.06 430.563L133.06 455.383V506.623L132.88 506.523L88.75 481.023L44.39 506.633V506.583L3.57 530.153L43.12 553.023C43.7027 552.462 44.481 552.15 45.29 552.153C46.0984 552.153 46.8756 552.465 47.46 553.023L89.65 528.663V580.913L89.2 581.173L46.18 606.023V607.023L45.29 606.503L44.39 607.023V606.023L0.93 580.883V531.683H0.86V479.473L1.3 479.213L44.39 454.333V357.533C43.9333 357.397 43.5134 357.16 43.1617 356.839C42.8101 356.517 42.5359 356.12 42.3599 355.678C42.1838 355.235 42.1105 354.758 42.1454 354.283C42.1802 353.808 42.3224 353.347 42.5612 352.935C42.7999 352.522 43.1291 352.17 43.5239 351.903C43.9187 351.636 44.3688 351.463 44.8404 351.395C45.312 351.328 45.7927 351.368 46.2465 351.513C46.7002 351.658 47.1151 351.904 47.46 352.233L87.83 328.933V278.713L88.27 278.463L130.41 254.133L87.83 229.553V181.863C87.3493 181.73 86.9093 181.479 86.55 181.133L46.14 204.463V255.683V304.863L45.69 305.123L0.86 331.023V278.723L1.3 278.463L43.45 254.133L0.89 229.563V179.363L0 178.853L0.89 178.333V128.143L1.34 127.883L43.47 103.563L0 78.4631L0.18 78.3631L44.36 52.8531V6.18311C43.794 6.02446 43.2837 5.71061 42.8868 5.27706C42.4899 4.8435 42.2222 4.30753 42.114 3.72977C42.0058 3.15201 42.0614 2.5555 42.2746 2.00771C42.4877 1.45992 42.8499 0.982691 43.3202 0.630009C43.7904 0.277326 44.35 0.063247 44.9355 0.0119971C45.5211 -0.0392529 46.1093 0.0743668 46.6337 0.34C47.158 0.605633 47.5976 1.01269 47.9027 1.51513C48.2078 2.01756 48.3662 2.59534 48.36 3.18311C48.3536 3.43267 48.3201 3.68079 48.26 3.9231L89.56 27.7631V77.9631L90.45 78.4731L89.56 78.9931V79.9931L88.67 79.4731L47 103.563L89.57 128.143V175.843C90.2197 176.033 90.7908 176.427 91.198 176.968C91.6053 177.509 91.8269 178.166 91.83 178.843C91.8273 179.089 91.7971 179.334 91.74 179.573L131.26 202.393V103.023L131.7 102.763L176.51 76.8931V129.153L176.06 129.403L134 153.753L175.69 177.823L218.26 153.243V103.023L218.71 102.763L263.52 76.8931V129.153L263.07 129.403L220.07 154.243V251.123C220.719 251.314 221.289 251.709 221.696 252.249C222.103 252.79 222.325 253.447 222.33 254.123C222.329 254.373 222.295 254.622 222.23 254.863L261.75 277.673V228.523L262.2 228.263L307 202.393V253.623L351.36 279.233L351.18 279.333L307 304.843V354.023L349.57 378.603L393 353.483H393.06L436.47 378.543L480.83 353.023V405.223L480.38 405.483L439.52 429.073C439.585 429.311 439.619 429.556 439.62 429.803C439.617 430.48 439.395 431.138 438.988 431.678C438.581 432.219 438.01 432.613 437.36 432.803V479.473L479.94 504.023L524.3 478.413V528.603L566 504.583V453.353L566.18 453.463L611.25 479.463V527.163C611.816 527.322 612.326 527.636 612.723 528.069C613.12 528.503 613.388 529.039 613.496 529.616C613.604 530.194 613.549 530.791 613.335 531.339C613.122 531.886 612.76 532.364 612.29 532.716C611.82 533.069 611.26 533.283 610.674 533.334C610.089 533.385 609.501 533.272 608.976 533.006C608.452 532.741 608.012 532.334 607.707 531.831C607.402 531.329 607.244 530.751 607.25 530.163C607.251 529.916 607.284 529.671 607.35 529.433L567.83 506.613V555.773L567.38 556.023L522.51 581.923L479.05 607.023V555.803L438.64 532.473C438.281 532.819 437.841 533.07 437.36 533.203V581.933L437.18 581.823L393 556.323L392.11 556.833V555.833L350.42 531.773V580.933L349.98 581.183L305.17 607.023ZM305.41 554.913V606.613L350.18 580.763V531.323L350.36 531.433L392.36 555.663V556.423L393 556.023H393.06L437.12 581.453V533.023H437.21C437.712 532.889 438.17 532.627 438.54 532.263L438.6 532.193L438.68 532.243L479.28 555.683V606.613L522.75 581.523L567.53 555.673V506.223L567.71 506.333L607.57 529.333V529.423C607.503 529.671 607.466 529.926 607.46 530.183C607.457 530.73 607.607 531.267 607.894 531.732C608.181 532.198 608.593 532.574 609.083 532.816C609.573 533.059 610.121 533.16 610.665 533.106C611.21 533.053 611.728 532.848 612.161 532.514C612.595 532.181 612.925 531.732 613.116 531.219C613.307 530.707 613.35 530.151 613.241 529.615C613.131 529.08 612.873 528.585 612.497 528.189C612.12 527.793 611.639 527.51 611.11 527.373H611.02V479.623L566.25 453.773V504.713H566.19L524.06 529.023V478.873L479.94 504.343H479.88L437.12 479.623V432.623H437.21C437.831 432.46 438.381 432.096 438.773 431.587C439.166 431.079 439.379 430.455 439.38 429.813C439.379 429.556 439.342 429.3 439.27 429.053V428.963H439.35L480.62 405.133V353.393L436.5 378.863H436.44L393 353.763L349.53 378.863H349.47L306.72 354.183V304.703H306.78L350.84 279.263L306.72 253.783V202.813L261.94 228.663V278.103L261.76 277.993L221.9 255.023V254.933C221.968 254.685 222.005 254.43 222.01 254.173C222.009 253.532 221.795 252.91 221.402 252.403C221.01 251.897 220.46 251.534 219.84 251.373H219.75V154.123H219.81L263.25 129.023V77.3231L218.47 103.173V153.363H218.41L175.66 178.043H175.6L133.49 153.733L133.67 153.633L176.31 129.023V77.3231L131.54 103.173V202.803L131.36 202.703L91.5 179.703V179.613C91.5715 179.366 91.6085 179.11 91.61 178.853C91.6146 178.21 91.4062 177.584 91.0172 177.072C90.6283 176.56 90.0807 176.191 89.46 176.023H89.37V128.283L46.56 103.563L46.74 103.453L88.74 79.2231L89.39 79.5931V78.8431L90.05 78.4631L89.39 78.0931V27.8931L48 4.02311V3.93311C48.0752 3.68659 48.1155 3.43078 48.12 3.1731C48.1176 2.62575 47.9614 2.09011 47.6693 1.62725C47.3771 1.16439 46.9608 0.792956 46.4677 0.555332C45.9746 0.317708 45.4247 0.223456 44.8806 0.283329C44.3366 0.343201 43.8203 0.554793 43.3907 0.893955C42.9611 1.23312 42.6354 1.6862 42.4509 2.20151C42.2664 2.71683 42.2305 3.27362 42.3472 3.80838C42.4639 4.34315 42.7285 4.83435 43.1109 5.22594C43.4934 5.61754 43.9782 5.89376 44.51 6.02311H44.6V53.0231H44.54L0.48 78.4631L44 103.563L43.82 103.663L1.13 128.283V178.473L0.48 178.853L1.13 179.223V229.423L43.93 254.133L43.75 254.233L1.1 278.853V330.553L45.87 304.703V255.253V204.323H45.93L86.55 180.863L86.61 180.933C86.9781 181.298 87.4374 181.557 87.94 181.683H88.03V229.423L130.84 254.133L130.66 254.243L88.07 278.853V329.023H88.01L47.42 352.533L47.35 352.473C47.0823 352.198 46.7621 351.979 46.4082 351.829C46.0544 351.68 45.6741 351.603 45.29 351.603C44.5848 351.605 43.9042 351.862 43.3747 352.328C42.8451 352.793 42.5027 353.436 42.411 354.135C42.3193 354.834 42.4846 355.543 42.8762 356.129C43.2678 356.716 43.8591 357.14 44.54 357.323H44.63V454.443H44.57L1.1 479.603V531.303H1.17V580.783L44.63 605.883V606.633L45.29 606.263L45.94 606.633V605.883H46L89.41 580.813V529.023L47.41 553.273L47.34 553.203C47.0695 552.931 46.7478 552.714 46.3934 552.567C46.039 552.419 45.6589 552.343 45.275 552.343C44.8911 552.343 44.511 552.419 44.1566 552.567C43.8022 552.714 43.4805 552.931 43.21 553.203L43.14 553.273H43.06L3.06 530.183L3.24 530.083L44.6 506.203V506.253L88.72 480.783H88.78L132.85 506.223V455.223H132.91L176.28 430.223V382.443H176.37C176.896 382.305 177.373 382.022 177.746 381.626C178.119 381.231 178.375 380.739 178.482 380.205C178.59 379.672 178.546 379.12 178.356 378.61C178.166 378.101 177.836 377.655 177.405 377.323C176.974 376.991 176.459 376.787 175.918 376.733C175.376 376.679 174.831 376.778 174.343 377.019C173.855 377.259 173.445 377.632 173.158 378.094C172.871 378.556 172.719 379.089 172.72 379.633C172.72 379.89 172.757 380.146 172.83 380.393V380.483H172.75L131.49 404.303V453.723L131.31 453.613L89.31 429.393V329.773H89.37L132.09 305.113H132.15L176.21 330.553V279.613H176.27L217 256.123L217.07 256.183C217.435 256.549 217.89 256.811 218.39 256.943H218.48V304.683L259.83 328.553V328.643C259.763 328.891 259.726 329.146 259.72 329.403C259.725 329.66 259.762 329.915 259.83 330.163V330.253H259.75L218.48 354.073V454.473H218.42L178 477.823L177.94 477.743C177.671 477.36 177.313 477.047 176.896 476.831C176.48 476.616 176.018 476.504 175.549 476.506C175.081 476.507 174.619 476.622 174.204 476.84C173.789 477.058 173.433 477.374 173.167 477.759C172.9 478.144 172.73 478.588 172.671 479.053C172.613 479.518 172.668 479.991 172.831 480.43C172.995 480.869 173.262 481.263 173.61 481.577C173.958 481.89 174.376 482.116 174.83 482.233H174.92V531.233L218.39 506.143V555.583L263.16 581.433V529.733L220.39 505.033L220.57 504.933L262.57 480.683H262.63L303.27 504.143V504.233C303.203 504.481 303.166 504.736 303.16 504.993C303.157 505.539 303.308 506.076 303.595 506.541C303.881 507.006 304.293 507.381 304.782 507.624C305.272 507.866 305.819 507.967 306.363 507.914C306.907 507.861 307.425 507.657 307.858 507.324C308.292 506.991 308.623 506.544 308.814 506.032C309.006 505.52 309.05 504.965 308.942 504.43C308.834 503.894 308.578 503.4 308.203 503.003C307.828 502.606 307.348 502.322 306.82 502.183H306.73V405.083H306.79L349.54 380.393H349.6L391.7 404.703L391.52 404.803L348.89 429.423V479.623L348.24 480.003L348.89 480.373V529.813H348.83L305.41 554.913Z" fill="url(#paint0_linear_368_558)"/>
<path d="M132.84 152.623V103.933H132.9L175 79.5931V128.273H174.94L132.84 152.623ZM133.08 104.073V152.203L174.77 128.133V80.0231L133.08 104.073Z" fill="url(#paint1_linear_368_558)"/>
<path d="M2.40039 328.293V279.613H2.46039L44.5704 255.303V303.983H44.5104L2.40039 328.293ZM2.64039 279.753V327.883L44.3304 303.813V255.683L2.64039 279.753Z" fill="url(#paint2_linear_368_558)"/>
<path d="M45.9395 604.333V558.103H46.0295C46.6497 557.938 47.1983 557.574 47.5906 557.066C47.9828 556.558 48.1968 555.935 48.1995 555.293C48.193 555.036 48.1561 554.781 48.0895 554.533V554.443H48.1695L88.1695 531.363V580.023H87.9995L45.9395 604.333ZM46.1795 558.333V603.923L87.8595 579.853V531.723L48.3395 554.543C48.4043 554.781 48.438 555.026 48.4395 555.273C48.4369 555.951 48.2156 556.611 47.8085 557.153C47.4013 557.695 46.83 558.092 46.1795 558.283V558.333Z" fill="url(#paint3_linear_368_558)"/>
<path d="M44.6307 604.333L44.4507 604.233L2.4707 580.023V531.313L2.6507 531.413L42.5107 554.413V554.503C42.4363 554.75 42.3959 555.006 42.3907 555.263C42.395 555.904 42.6096 556.527 43.0016 557.034C43.3936 557.542 43.9413 557.907 44.5607 558.073H44.6507L44.6307 604.333ZM2.7107 579.853L44.3907 603.913V558.283C43.7418 558.092 43.1717 557.697 42.7647 557.157C42.3576 556.617 42.1354 555.96 42.1307 555.283C42.1371 555.037 42.1706 554.792 42.2307 554.553L2.7107 531.723V579.853Z" fill="url(#paint4_linear_368_558)"/>
<path d="M480.59 554.143V505.473H480.65L522.75 481.173V529.843H522.69L480.59 554.143ZM480.83 505.613V553.733L522.51 529.663V481.543L480.83 505.613Z" fill="url(#paint5_linear_368_558)"/>
<path d="M434.341 528.203H434.261L394.311 505.133L394.491 505.033L435.811 481.173V527.403H435.731C435.228 527.534 434.769 527.797 434.401 528.163L434.341 528.203ZM394.781 505.093L434.301 527.913C434.66 527.567 435.1 527.316 435.581 527.183V481.543L394.781 505.093Z" fill="url(#paint6_linear_368_558)"/>
<path d="M435.811 478.873L435.641 478.763L393.641 454.523V405.843L393.821 405.943L433.681 428.943V429.033C433.609 429.28 433.572 429.536 433.571 429.793C433.572 430.435 433.785 431.059 434.177 431.567C434.57 432.076 435.12 432.44 435.741 432.603H435.821L435.811 478.873ZM393.891 454.383L435.581 478.453V432.813C434.931 432.623 434.36 432.229 433.953 431.688C433.545 431.148 433.324 430.49 433.321 429.813C433.323 429.567 433.354 429.322 433.411 429.083L393.891 406.263V454.383Z" fill="url(#paint7_linear_368_558)"/>
<path d="M434.341 427.823H434.261L394.311 404.763L394.491 404.653L435.811 380.793V427.023H435.731C435.227 427.147 434.767 427.406 434.401 427.773L434.341 427.823ZM394.781 404.713L434.301 427.523C434.66 427.177 435.1 426.926 435.581 426.793V381.163L394.781 404.713Z" fill="url(#paint8_linear_368_558)"/>
<path d="M393 504.343H392.94L350.84 480.023L370.06 468.923L393 455.653H393.06L435.16 480.023L415.94 491.123L393 504.343ZM351.32 480.023L393 504.023L434.68 480.023L393 455.933L351.32 480.023Z" fill="url(#paint9_linear_368_558)"/>
<path d="M393.65 554.163V506.223L393.83 506.333L433.69 529.333V529.423C433.544 529.919 433.544 530.447 433.69 530.943V531.033H433.61L393.65 554.163ZM393.89 506.643V553.743L433.41 530.923C433.29 530.444 433.29 529.942 433.41 529.463L393.89 506.643Z" fill="url(#paint10_linear_368_558)"/>
<path d="M438.599 427.823L438.539 427.753C438.171 427.388 437.712 427.129 437.209 427.003H437.119V380.023H437.179L479.279 355.713V404.393H479.219L438.599 427.823ZM437.359 426.823C437.84 426.956 438.28 427.207 438.639 427.553L479.049 404.223V356.023L437.359 380.093V426.823Z" fill="url(#paint11_linear_368_558)"/>
<path d="M305.411 353.393L305.231 353.283L265.371 330.283V330.193C265.439 329.945 265.476 329.69 265.481 329.433C265.478 328.793 265.263 328.171 264.871 327.665C264.479 327.159 263.93 326.796 263.311 326.633H263.221V280.363L263.401 280.463L305.401 304.703L305.411 353.393ZM265.651 330.153L305.171 353.023V304.843L263.491 280.773V326.413C264.139 326.606 264.708 327.001 265.115 327.541C265.522 328.081 265.744 328.737 265.751 329.413C265.751 329.663 265.717 329.912 265.651 330.153Z" fill="url(#paint12_linear_368_558)"/>
<path d="M263.25 378.483V332.253H263.34C263.84 332.121 264.295 331.859 264.66 331.493L264.73 331.433H264.81L304.75 354.493L304.58 354.603L263.25 378.483ZM263.49 332.433V378.023L304.28 354.473L264.77 331.663C264.411 332.019 263.972 332.283 263.49 332.433Z" fill="url(#paint13_linear_368_558)"/>
<path d="M306.06 303.573H306L263.9 279.263L306.06 254.913H306.12L348.23 279.223L348.05 279.323L306.06 303.573ZM264.38 279.233L306.06 303.293L347.75 279.233L306.06 255.163L264.38 279.233Z" fill="url(#paint14_linear_368_558)"/>
<path d="M263.25 278.103V229.413H263.31L305.41 205.103V253.783H305.35L263.25 278.103ZM263.49 229.553V277.683L305.17 253.623V205.483L263.49 229.553Z" fill="url(#paint15_linear_368_558)"/>
<path d="M219.779 152.623V103.933H219.839L261.939 79.623V128.303H261.879L219.779 152.623ZM220.019 104.073V152.203L261.699 128.133V80.023L220.019 104.073Z" fill="url(#paint16_linear_368_558)"/>
<path d="M176.311 227.913V179.223H176.371L218.471 154.913V203.603L204.701 211.523L176.311 227.913ZM176.551 179.363V227.493L218.231 203.433V155.303L176.551 179.363Z" fill="url(#paint17_linear_368_558)"/>
<path d="M175 278.103L132.83 253.763V205.073L175 229.423V278.103ZM133.08 253.623L174.77 277.683V229.553L133.08 205.493V253.623Z" fill="url(#paint18_linear_368_558)"/>
<path d="M175 227.913L132.83 203.573V154.883L133.01 154.993L175.01 179.223L175 227.913ZM133.07 203.433L174.76 227.493V179.363L133.07 155.303V203.433Z" fill="url(#paint19_linear_368_558)"/>
<path d="M86.5902 176.863H86.5102L45.9102 153.413V104.693L46.0802 104.793L88.0802 129.033V176.033L88.0002 176.023C87.4985 176.157 87.0403 176.419 86.6702 176.783L86.5902 176.863ZM46.1402 153.243L86.5502 176.563C86.9132 176.224 87.3521 175.977 87.8302 175.843V129.173L46.1402 105.103V153.243Z" fill="url(#paint20_linear_368_558)"/>
<path d="M88.0702 77.3331L87.8902 77.2331L45.9102 53.0231V6.02313H45.9902C46.4929 5.89177 46.9518 5.62954 47.3202 5.26314L47.3902 5.20312H47.4702L88.0702 28.6531V77.3331ZM46.1402 52.8531L87.8302 76.9231V28.7831L47.4202 5.46313C47.0571 5.80188 46.6182 6.04876 46.1402 6.18314V52.8531Z" fill="url(#paint21_linear_368_558)"/>
<path d="M45.2498 102.803L44.4198 102.323L3.08984 78.463L3.26984 78.363L45.2698 54.123H45.3298L87.4298 78.433L87.2598 78.543L45.9098 102.433L45.2498 102.803ZM44.3698 102.023L45.2498 102.533L46.1398 102.013L86.9398 78.463L45.2498 54.393L3.56984 78.463L44.3698 102.023Z" fill="url(#paint22_linear_368_558)"/>
<path d="M2.43945 177.723V129.023H2.49945L44.5995 104.713V153.393H44.5395L2.43945 177.723ZM2.67945 129.173V177.303L44.3595 153.243V105.103L2.67945 129.173Z" fill="url(#paint23_linear_368_558)"/>
<path d="M44.5999 253.023L44.4199 252.913L2.41992 228.673V180.023L2.59992 180.123L44.5999 204.363V253.023ZM2.67992 228.533L44.3599 252.593V204.463L2.67992 180.393V228.533Z" fill="url(#paint24_linear_368_558)"/>
<path d="M45.2498 203.193H45.1898L3.08984 178.853L22.3098 167.753L45.2498 154.503H45.3098L85.9998 178.023V178.113C85.9269 178.36 85.8898 178.616 85.8898 178.873C85.8913 179.13 85.9283 179.386 85.9998 179.633V179.723H85.9198L45.2498 203.193ZM3.56984 178.853L45.2498 202.913L85.6698 179.583C85.605 179.345 85.5713 179.1 85.5698 178.853C85.5713 178.603 85.6049 178.355 85.6698 178.113L45.2498 154.783L3.56984 178.853Z" fill="url(#paint25_linear_368_558)"/>
<path d="M131.539 253.023L131.359 252.923L89.3594 228.683V181.683H89.4494C89.9519 181.557 90.4113 181.298 90.7794 180.933L90.8394 180.863L90.9194 180.913L131.529 204.353L131.539 253.023ZM89.6094 228.523L131.299 252.593V204.463L90.8894 181.133C90.53 181.479 90.0901 181.73 89.6094 181.863V228.523Z" fill="url(#paint26_linear_368_558)"/>
<path d="M89.3691 328.293V279.613H89.4291L131.539 255.303V303.993H131.479L89.3691 328.293ZM89.6091 279.743V327.873L131.299 303.813V255.683L89.6091 279.743Z" fill="url(#paint27_linear_368_558)"/>
<path d="M45.9395 403.583V357.353H46.0295C46.6489 357.19 47.1973 356.828 47.5896 356.321C47.9819 355.815 48.1963 355.194 48.1995 354.553C48.1944 354.296 48.1575 354.041 48.0895 353.793V353.703H48.1695L88.1695 330.633V379.323H88.1095L45.9395 403.583ZM46.1795 357.583V403.213L87.8595 379.153V331.023L48.3395 353.793C48.405 354.031 48.4387 354.276 48.4395 354.523C48.4353 355.201 48.2134 355.859 47.8065 356.401C47.3996 356.943 46.8291 357.34 46.1795 357.533V357.583Z" fill="url(#paint28_linear_368_558)"/>
<path d="M45.9395 453.773V405.083H45.9995L88.0995 380.773V429.423H88.0395L45.9395 453.773ZM46.1795 405.223V453.353L87.8595 429.293V381.163L46.1795 405.223Z" fill="url(#paint29_linear_368_558)"/>
<path d="M2.40039 529.023V480.363H2.46039L44.5704 456.023V504.713H44.5104L2.40039 529.023ZM2.64039 480.483V528.613L44.3304 504.543V456.433L2.64039 480.483Z" fill="url(#paint30_linear_368_558)"/>
<path d="M45.9395 503.963V455.273H45.9995L88.0995 430.963V479.643H88.0395L45.9395 503.963ZM46.1795 455.413V503.543L87.8595 479.483V431.353L46.1795 455.413Z" fill="url(#paint31_linear_368_558)"/>
<path d="M132.84 453.773V405.083H132.9L173.53 381.633L173.59 381.693C173.958 382.059 174.417 382.322 174.92 382.453H175.01V429.453H174.95L132.84 453.773ZM133.08 405.223V453.353L174.77 429.293V382.623C174.292 382.489 173.853 382.242 173.49 381.903L133.08 405.223Z" fill="url(#paint32_linear_368_558)"/>
<path d="M131.571 503.963L131.391 503.853L89.3906 479.613V430.933L89.5706 431.043L131.521 455.263V456.023L131.571 503.963ZM89.6506 479.483L131.331 503.543V456.423V455.423L89.6806 431.423L89.6506 479.483Z" fill="url(#paint33_linear_368_558)"/>
<path d="M175 328.293L174.82 328.183L132.82 303.953V255.263L175 279.613V328.293ZM133.07 303.813L174.76 327.873V279.743L133.07 255.683V303.813Z" fill="url(#paint34_linear_368_558)"/>
<path d="M176.311 278.103V229.423H176.371L218.471 205.113V251.343H218.381C217.762 251.507 217.215 251.87 216.822 252.376C216.43 252.882 216.215 253.503 216.211 254.143C216.215 254.401 216.255 254.657 216.331 254.903V254.993L216.251 255.043L176.311 278.103ZM176.551 229.553V277.683L216.071 254.873C216.01 254.631 215.977 254.383 215.971 254.133C215.977 253.457 216.2 252.801 216.606 252.261C217.013 251.721 217.582 251.326 218.231 251.133V205.493L176.551 229.553Z" fill="url(#paint35_linear_368_558)"/>
<path d="M260.459 327.443H260.379L219.779 304.003V257.003H219.869C220.369 256.871 220.825 256.609 221.189 256.243L221.259 256.183H221.339L261.939 279.633V326.633H261.849C261.349 326.757 260.892 327.017 260.529 327.383L260.459 327.443ZM219.999 303.813L260.399 327.143C260.762 326.802 261.201 326.552 261.679 326.413V279.753L221.299 256.423C220.933 256.758 220.495 257.004 220.019 257.143L219.999 303.813Z" fill="url(#paint36_linear_368_558)"/>
<path d="M219.779 403.583V354.903H219.839L260.459 331.453L260.529 331.513C260.894 331.879 261.35 332.141 261.849 332.273H261.939V379.273L261.109 379.753L219.779 403.583ZM219.999 355.023V403.153L261.679 379.083V332.433C261.203 332.294 260.765 332.048 260.399 331.713L219.999 355.023Z" fill="url(#paint37_linear_368_558)"/>
<path d="M219.779 503.963V455.273H219.839L261.939 430.963V479.643H261.879L219.779 503.963ZM220.019 455.413V503.543L261.699 479.483V431.353L220.019 455.413Z" fill="url(#paint38_linear_368_558)"/>
<path d="M219.779 453.773V405.083H219.839L261.939 380.773V429.423H261.879L219.779 453.773ZM219.999 405.223V453.353L261.679 429.293V381.163L219.999 405.223Z" fill="url(#paint39_linear_368_558)"/>
<path d="M176.24 529.023V482.253H176.33C176.95 482.088 177.499 481.724 177.891 481.216C178.284 480.708 178.498 480.085 178.5 479.443C178.506 479.39 178.506 479.336 178.5 479.283C178.5 479.283 178.5 479.213 178.5 479.173V479.093L218.41 456.023V504.713H218.35L176.24 529.023ZM176.48 482.413V528.613L218.17 504.543V456.433L178.72 479.203C178.725 479.27 178.725 479.336 178.72 479.403C178.725 480.082 178.509 480.745 178.105 481.291C177.701 481.838 177.131 482.238 176.48 482.433V482.413Z" fill="url(#paint40_linear_368_558)"/>
<path d="M261.869 579.243L261.689 579.133L219.689 554.893V506.213L219.869 506.313L261.869 530.553V579.243ZM219.999 554.753L261.679 578.823V530.693L219.999 506.623V554.753Z" fill="url(#paint41_linear_368_558)"/>
<path d="M303.93 503.103H303.85L263.25 479.653V430.933L263.43 431.043L305.43 455.283V502.283H305.34C304.835 502.406 304.373 502.661 304 503.023L303.93 503.103ZM263.49 479.483L303.89 502.803C304.256 502.469 304.694 502.222 305.17 502.083V455.423L263.49 431.353V479.483Z" fill="url(#paint42_linear_368_558)"/>
<path d="M305.41 453.773L305.23 453.663L263.23 429.423V380.743L263.41 380.843L305.41 405.083V453.773ZM263.49 429.293L305.17 453.353V405.223L263.49 381.163V429.293Z" fill="url(#paint43_linear_368_558)"/>
<path d="M306.06 403.953H306L263.9 379.643L264.08 379.543L306.08 355.303L306.92 355.783L348.25 379.643L348.07 379.743L306.06 403.953ZM264.38 379.613L306.06 403.683L347.75 379.613L306.06 355.553L264.38 379.613Z" fill="url(#paint44_linear_368_558)"/>
<path d="M393 403.953L392.17 403.473L350.84 379.613L351.02 379.513L393.02 355.273H393.08L435.18 379.583L435 379.683L393.67 403.553L393 403.953ZM392.12 403.173L393 403.683L393.89 403.163L434.68 379.613L393 355.543L351.32 379.613L392.12 403.173Z" fill="url(#paint45_linear_368_558)"/>
<path d="M350.18 478.873V430.183H350.24L392.35 405.873V454.523H392.29L350.18 478.873ZM350.42 430.323V478.453L392.11 454.383V406.253L350.42 430.323Z" fill="url(#paint46_linear_368_558)"/>
<path d="M306.721 604.343V555.663H306.781L348.881 531.353V580.023H348.821L306.721 604.343ZM306.961 555.803V603.933L348.641 579.863V531.743L306.961 555.803Z" fill="url(#paint47_linear_368_558)"/>
<path d="M392.35 554.163L392.17 554.053L350.17 529.813V481.133L350.35 481.233L392.35 505.473V554.163ZM350.42 529.673L392.11 553.743V505.613L350.42 481.543V529.673Z" fill="url(#paint48_linear_368_558)"/>
<path d="M435.811 579.253L435.641 579.153L394.311 555.293L394.491 555.183L434.341 532.183L434.401 532.253C434.769 532.618 435.228 532.877 435.731 533.003H435.811V579.253ZM394.811 555.253L435.611 578.803V533.203C435.13 533.07 434.69 532.819 434.331 532.473L394.811 555.253Z" fill="url(#paint49_linear_368_558)"/>
<path d="M479.28 554.153L479.11 554.053L439.25 531.053V530.973C439.321 530.726 439.358 530.47 439.36 530.213C439.357 529.571 439.143 528.948 438.751 528.44C438.358 527.932 437.81 527.568 437.19 527.403H437.1V481.133L437.28 481.233L479.28 505.473V554.153ZM439.52 530.923L479.05 553.743V505.613L437.36 481.543V527.183C438.009 527.373 438.58 527.767 438.988 528.308C439.395 528.849 439.617 529.506 439.62 530.183C439.619 530.433 439.585 530.682 439.52 530.923Z" fill="url(#paint50_linear_368_558)"/>
<path d="M480.59 604.333V555.663H480.65L522.75 531.363V580.023H522.69L480.59 604.333ZM480.83 555.803V603.913L522.51 579.853V531.733L480.83 555.803Z" fill="url(#paint51_linear_368_558)"/>
<path d="M524.061 579.253V530.563H524.121L566.221 506.253V554.933H566.161L524.061 579.253ZM524.301 530.703V578.833L566.001 554.773V506.643L524.301 530.703Z" fill="url(#paint52_linear_368_558)"/>
<path d="M608.209 528.203H608.129L567.529 504.753V456.023L567.709 456.123L609.709 480.363V527.363H609.619C609.12 527.495 608.664 527.757 608.299 528.123L608.209 528.203ZM567.769 504.573L608.169 527.903C608.534 527.566 608.972 527.32 609.449 527.183V480.513L567.769 456.443V504.573Z" fill="url(#paint53_linear_368_558)"/>
</g>
<defs>
<linearGradient id="paint0_linear_368_558" x1="0.599987" y1="533.133" x2="331.45" y2="263.703" gradientUnits="userSpaceOnUse">
<stop stop-color="white"/>
<stop offset="0.22" stop-color="white" stop-opacity="0.76"/>
<stop offset="0.6" stop-color="white" stop-opacity="0.36"/>
<stop offset="0.87" stop-color="white" stop-opacity="0.1"/>
<stop offset="1" stop-color="white" stop-opacity="0"/>
</linearGradient>
<linearGradient id="paint1_linear_368_558" x1="-142.46" y1="357.453" x2="188.4" y2="88.0331" gradientUnits="userSpaceOnUse">
<stop stop-color="white"/>
<stop offset="0.22" stop-color="white" stop-opacity="0.76"/>
<stop offset="0.6" stop-color="white" stop-opacity="0.36"/>
<stop offset="0.87" stop-color="white" stop-opacity="0.1"/>
<stop offset="1" stop-color="white" stop-opacity="0"/>
</linearGradient>
<linearGradient id="paint2_linear_368_558" x1="-108.45" y1="399.223" x2="222.41" y2="129.793" gradientUnits="userSpaceOnUse">
<stop stop-color="white"/>
<stop offset="0.22" stop-color="white" stop-opacity="0.76"/>
<stop offset="0.6" stop-color="white" stop-opacity="0.36"/>
<stop offset="0.87" stop-color="white" stop-opacity="0.1"/>
<stop offset="1" stop-color="white" stop-opacity="0"/>
</linearGradient>
<linearGradient id="paint3_linear_368_558" x1="44.1895" y1="586.663" x2="375.049" y2="317.233" gradientUnits="userSpaceOnUse">
<stop stop-color="white"/>
<stop offset="0.22" stop-color="white" stop-opacity="0.76"/>
<stop offset="0.6" stop-color="white" stop-opacity="0.36"/>
<stop offset="0.87" stop-color="white" stop-opacity="0.1"/>
<stop offset="1" stop-color="white" stop-opacity="0"/>
</linearGradient>
<linearGradient id="paint4_linear_368_558" x1="26.7407" y1="565.223" x2="357.591" y2="295.803" gradientUnits="userSpaceOnUse">
<stop stop-color="white"/>
<stop offset="0.22" stop-color="white" stop-opacity="0.76"/>
<stop offset="0.6" stop-color="white" stop-opacity="0.36"/>
<stop offset="0.87" stop-color="white" stop-opacity="0.1"/>
<stop offset="1" stop-color="white" stop-opacity="0"/>
</linearGradient>
<linearGradient id="paint5_linear_368_558" x1="192.8" y1="769.153" x2="523.66" y2="499.733" gradientUnits="userSpaceOnUse">
<stop stop-color="white"/>
<stop offset="0.22" stop-color="white" stop-opacity="0.76"/>
<stop offset="0.6" stop-color="white" stop-opacity="0.36"/>
<stop offset="0.87" stop-color="white" stop-opacity="0.1"/>
<stop offset="1" stop-color="white" stop-opacity="0"/>
</linearGradient>
<linearGradient id="paint6_linear_368_558" x1="157.581" y1="725.903" x2="488.43" y2="456.483" gradientUnits="userSpaceOnUse">
<stop stop-color="white"/>
<stop offset="0.22" stop-color="white" stop-opacity="0.76"/>
<stop offset="0.6" stop-color="white" stop-opacity="0.36"/>
<stop offset="0.87" stop-color="white" stop-opacity="0.1"/>
<stop offset="1" stop-color="white" stop-opacity="0"/>
</linearGradient>
<linearGradient id="paint7_linear_368_558" x1="121.281" y1="681.323" x2="452.131" y2="411.903" gradientUnits="userSpaceOnUse">
<stop stop-color="white"/>
<stop offset="0.22" stop-color="white" stop-opacity="0.76"/>
<stop offset="0.6" stop-color="white" stop-opacity="0.36"/>
<stop offset="0.87" stop-color="white" stop-opacity="0.1"/>
<stop offset="1" stop-color="white" stop-opacity="0"/>
</linearGradient>
<linearGradient id="paint8_linear_368_558" x1="108.431" y1="665.543" x2="439.28" y2="396.123" gradientUnits="userSpaceOnUse">
<stop stop-color="white"/>
<stop offset="0.22" stop-color="white" stop-opacity="0.76"/>
<stop offset="0.6" stop-color="white" stop-opacity="0.36"/>
<stop offset="0.87" stop-color="white" stop-opacity="0.1"/>
<stop offset="1" stop-color="white" stop-opacity="0"/>
</linearGradient>
<linearGradient id="paint9_linear_368_558" x1="131.05" y1="693.313" x2="461.9" y2="423.893" gradientUnits="userSpaceOnUse">
<stop stop-color="white"/>
<stop offset="0.22" stop-color="white" stop-opacity="0.76"/>
<stop offset="0.6" stop-color="white" stop-opacity="0.36"/>
<stop offset="0.87" stop-color="white" stop-opacity="0.1"/>
<stop offset="1" stop-color="white" stop-opacity="0"/>
</linearGradient>
<linearGradient id="paint10_linear_368_558" x1="158.21" y1="726.673" x2="489.06" y2="457.243" gradientUnits="userSpaceOnUse">
<stop stop-color="white"/>
<stop offset="0.22" stop-color="white" stop-opacity="0.76"/>
<stop offset="0.6" stop-color="white" stop-opacity="0.36"/>
<stop offset="0.87" stop-color="white" stop-opacity="0.1"/>
<stop offset="1" stop-color="white" stop-opacity="0"/>
</linearGradient>
<linearGradient id="paint11_linear_368_558" x1="114.039" y1="672.433" x2="444.889" y2="403.003" gradientUnits="userSpaceOnUse">
<stop stop-color="white"/>
<stop offset="0.22" stop-color="white" stop-opacity="0.76"/>
<stop offset="0.6" stop-color="white" stop-opacity="0.36"/>
<stop offset="0.87" stop-color="white" stop-opacity="0.1"/>
<stop offset="1" stop-color="white" stop-opacity="0"/>
</linearGradient>
<linearGradient id="paint12_linear_368_558" x1="7.84068" y1="542.023" x2="338.701" y2="272.603" gradientUnits="userSpaceOnUse">
<stop stop-color="white"/>
<stop offset="0.22" stop-color="white" stop-opacity="0.76"/>
<stop offset="0.6" stop-color="white" stop-opacity="0.36"/>
<stop offset="0.87" stop-color="white" stop-opacity="0.1"/>
<stop offset="1" stop-color="white" stop-opacity="0"/>
</linearGradient>
<linearGradient id="paint13_linear_368_558" x1="20.69" y1="557.803" x2="351.55" y2="288.383" gradientUnits="userSpaceOnUse">
<stop stop-color="white"/>
<stop offset="0.22" stop-color="white" stop-opacity="0.76"/>
<stop offset="0.6" stop-color="white" stop-opacity="0.36"/>
<stop offset="0.87" stop-color="white" stop-opacity="0.1"/>
<stop offset="1" stop-color="white" stop-opacity="0"/>
</linearGradient>
<linearGradient id="paint14_linear_368_558" x1="-1.91967" y1="530.033" x2="328.93" y2="260.613" gradientUnits="userSpaceOnUse">
<stop stop-color="white"/>
<stop offset="0.22" stop-color="white" stop-opacity="0.76"/>
<stop offset="0.6" stop-color="white" stop-opacity="0.36"/>
<stop offset="0.87" stop-color="white" stop-opacity="0.1"/>
<stop offset="1" stop-color="white" stop-opacity="0"/>
</linearGradient>
<linearGradient id="paint15_linear_368_558" x1="-29.02" y1="496.753" x2="301.83" y2="227.333" gradientUnits="userSpaceOnUse">
<stop stop-color="white"/>
<stop offset="0.22" stop-color="white" stop-opacity="0.76"/>
<stop offset="0.6" stop-color="white" stop-opacity="0.36"/>
<stop offset="0.87" stop-color="white" stop-opacity="0.1"/>
<stop offset="1" stop-color="white" stop-opacity="0"/>
</linearGradient>
<linearGradient id="paint16_linear_368_558" x1="-107.791" y1="400.023" x2="223.059" y2="130.603" gradientUnits="userSpaceOnUse">
<stop stop-color="white"/>
<stop offset="0.22" stop-color="white" stop-opacity="0.76"/>
<stop offset="0.6" stop-color="white" stop-opacity="0.36"/>
<stop offset="0.87" stop-color="white" stop-opacity="0.1"/>
<stop offset="1" stop-color="white" stop-opacity="0"/>
</linearGradient>
<linearGradient id="paint17_linear_368_558" x1="-88.2595" y1="424.013" x2="242.591" y2="154.593" gradientUnits="userSpaceOnUse">
<stop stop-color="white"/>
<stop offset="0.22" stop-color="white" stop-opacity="0.76"/>
<stop offset="0.6" stop-color="white" stop-opacity="0.36"/>
<stop offset="0.87" stop-color="white" stop-opacity="0.1"/>
<stop offset="1" stop-color="white" stop-opacity="0"/>
</linearGradient>
<linearGradient id="paint18_linear_368_558" x1="-81.0099" y1="432.903" x2="249.84" y2="163.483" gradientUnits="userSpaceOnUse">
<stop stop-color="white"/>
<stop offset="0.22" stop-color="white" stop-opacity="0.76"/>
<stop offset="0.6" stop-color="white" stop-opacity="0.36"/>
<stop offset="0.87" stop-color="white" stop-opacity="0.1"/>
<stop offset="1" stop-color="white" stop-opacity="0"/>
</linearGradient>
<linearGradient id="paint19_linear_368_558" x1="-105.59" y1="402.733" x2="225.26" y2="133.303" gradientUnits="userSpaceOnUse">
<stop stop-color="white"/>
<stop offset="0.22" stop-color="white" stop-opacity="0.76"/>
<stop offset="0.6" stop-color="white" stop-opacity="0.36"/>
<stop offset="0.87" stop-color="white" stop-opacity="0.1"/>
<stop offset="1" stop-color="white" stop-opacity="0"/>
</linearGradient>
<linearGradient id="paint20_linear_368_558" x1="-165.25" y1="329.473" x2="165.61" y2="60.0431" gradientUnits="userSpaceOnUse">
<stop stop-color="white"/>
<stop offset="0.22" stop-color="white" stop-opacity="0.76"/>
<stop offset="0.6" stop-color="white" stop-opacity="0.36"/>
<stop offset="0.87" stop-color="white" stop-opacity="0.1"/>
<stop offset="1" stop-color="white" stop-opacity="0"/>
</linearGradient>
<linearGradient id="paint21_linear_368_558" x1="-213.57" y1="270.133" x2="117.29" y2="0.713155" gradientUnits="userSpaceOnUse">
<stop stop-color="white"/>
<stop offset="0.22" stop-color="white" stop-opacity="0.76"/>
<stop offset="0.6" stop-color="white" stop-opacity="0.36"/>
<stop offset="0.87" stop-color="white" stop-opacity="0.1"/>
<stop offset="1" stop-color="white" stop-opacity="0"/>
</linearGradient>
<linearGradient id="paint22_linear_368_558" x1="-204.22" y1="281.613" x2="126.64" y2="12.193" gradientUnits="userSpaceOnUse">
<stop stop-color="white"/>
<stop offset="0.22" stop-color="white" stop-opacity="0.76"/>
<stop offset="0.6" stop-color="white" stop-opacity="0.36"/>
<stop offset="0.87" stop-color="white" stop-opacity="0.1"/>
<stop offset="1" stop-color="white" stop-opacity="0"/>
</linearGradient>
<linearGradient id="paint23_linear_368_558" x1="-182.161" y1="308.693" x2="148.69" y2="39.2732" gradientUnits="userSpaceOnUse">
<stop stop-color="white"/>
<stop offset="0.22" stop-color="white" stop-opacity="0.76"/>
<stop offset="0.6" stop-color="white" stop-opacity="0.36"/>
<stop offset="0.87" stop-color="white" stop-opacity="0.1"/>
<stop offset="1" stop-color="white" stop-opacity="0"/>
</linearGradient>
<linearGradient id="paint24_linear_368_558" x1="-145.3" y1="353.963" x2="185.56" y2="84.543" gradientUnits="userSpaceOnUse">
<stop stop-color="white"/>
<stop offset="0.22" stop-color="white" stop-opacity="0.76"/>
<stop offset="0.6" stop-color="white" stop-opacity="0.36"/>
<stop offset="0.87" stop-color="white" stop-opacity="0.1"/>
<stop offset="1" stop-color="white" stop-opacity="0"/>
</linearGradient>
<linearGradient id="paint25_linear_368_558" x1="-155.15" y1="341.873" x2="175.7" y2="72.4432" gradientUnits="userSpaceOnUse">
<stop stop-color="white"/>
<stop offset="0.22" stop-color="white" stop-opacity="0.76"/>
<stop offset="0.6" stop-color="white" stop-opacity="0.36"/>
<stop offset="0.87" stop-color="white" stop-opacity="0.1"/>
<stop offset="1" stop-color="white" stop-opacity="0"/>
</linearGradient>
<linearGradient id="paint26_linear_368_558" x1="-110.221" y1="397.043" x2="220.629" y2="127.623" gradientUnits="userSpaceOnUse">
<stop stop-color="white"/>
<stop offset="0.22" stop-color="white" stop-opacity="0.76"/>
<stop offset="0.6" stop-color="white" stop-opacity="0.36"/>
<stop offset="0.87" stop-color="white" stop-opacity="0.1"/>
<stop offset="1" stop-color="white" stop-opacity="0"/>
</linearGradient>
<linearGradient id="paint27_linear_368_558" x1="-73.7708" y1="441.803" x2="257.079" y2="172.373" gradientUnits="userSpaceOnUse">
<stop stop-color="white"/>
<stop offset="0.22" stop-color="white" stop-opacity="0.76"/>
<stop offset="0.6" stop-color="white" stop-opacity="0.36"/>
<stop offset="0.87" stop-color="white" stop-opacity="0.1"/>
<stop offset="1" stop-color="white" stop-opacity="0"/>
</linearGradient>
<linearGradient id="paint28_linear_368_558" x1="-54.1005" y1="465.953" x2="276.75" y2="196.533" gradientUnits="userSpaceOnUse">
<stop stop-color="white"/>
<stop offset="0.22" stop-color="white" stop-opacity="0.76"/>
<stop offset="0.6" stop-color="white" stop-opacity="0.36"/>
<stop offset="0.87" stop-color="white" stop-opacity="0.1"/>
<stop offset="1" stop-color="white" stop-opacity="0"/>
</linearGradient>
<linearGradient id="paint29_linear_368_558" x1="-29.6505" y1="495.983" x2="301.199" y2="226.553" gradientUnits="userSpaceOnUse">
<stop stop-color="white"/>
<stop offset="0.22" stop-color="white" stop-opacity="0.76"/>
<stop offset="0.6" stop-color="white" stop-opacity="0.36"/>
<stop offset="0.87" stop-color="white" stop-opacity="0.1"/>
<stop offset="1" stop-color="white" stop-opacity="0"/>
</linearGradient>
<linearGradient id="paint30_linear_368_558" x1="-10.1496" y1="519.923" x2="320.7" y2="250.503" gradientUnits="userSpaceOnUse">
<stop stop-color="white"/>
<stop offset="0.22" stop-color="white" stop-opacity="0.76"/>
<stop offset="0.6" stop-color="white" stop-opacity="0.36"/>
<stop offset="0.87" stop-color="white" stop-opacity="0.1"/>
<stop offset="1" stop-color="white" stop-opacity="0"/>
</linearGradient>
<linearGradient id="paint31_linear_368_558" x1="-5.08055" y1="526.163" x2="325.779" y2="256.733" gradientUnits="userSpaceOnUse">
<stop stop-color="white"/>
<stop offset="0.22" stop-color="white" stop-opacity="0.76"/>
<stop offset="0.6" stop-color="white" stop-opacity="0.36"/>
<stop offset="0.87" stop-color="white" stop-opacity="0.1"/>
<stop offset="1" stop-color="white" stop-opacity="0"/>
</linearGradient>
<linearGradient id="paint32_linear_368_558" x1="4.99985" y1="538.533" x2="335.85" y2="269.113" gradientUnits="userSpaceOnUse">
<stop stop-color="white"/>
<stop offset="0.22" stop-color="white" stop-opacity="0.76"/>
<stop offset="0.6" stop-color="white" stop-opacity="0.36"/>
<stop offset="0.87" stop-color="white" stop-opacity="0.1"/>
<stop offset="1" stop-color="white" stop-opacity="0"/>
</linearGradient>
<linearGradient id="paint33_linear_368_558" x1="12.2606" y1="547.443" x2="343.111" y2="278.023" gradientUnits="userSpaceOnUse">
<stop stop-color="white"/>
<stop offset="0.22" stop-color="white" stop-opacity="0.76"/>
<stop offset="0.6" stop-color="white" stop-opacity="0.36"/>
<stop offset="0.87" stop-color="white" stop-opacity="0.1"/>
<stop offset="1" stop-color="white" stop-opacity="0"/>
</linearGradient>
<linearGradient id="paint34_linear_368_558" x1="-56.4397" y1="463.083" x2="274.41" y2="193.663" gradientUnits="userSpaceOnUse">
<stop stop-color="white"/>
<stop offset="0.22" stop-color="white" stop-opacity="0.76"/>
<stop offset="0.6" stop-color="white" stop-opacity="0.36"/>
<stop offset="0.87" stop-color="white" stop-opacity="0.1"/>
<stop offset="1" stop-color="white" stop-opacity="0"/>
</linearGradient>
<linearGradient id="paint35_linear_368_558" x1="-63.8095" y1="454.043" x2="267.051" y2="184.613" gradientUnits="userSpaceOnUse">
<stop stop-color="white"/>
<stop offset="0.22" stop-color="white" stop-opacity="0.76"/>
<stop offset="0.6" stop-color="white" stop-opacity="0.36"/>
<stop offset="0.87" stop-color="white" stop-opacity="0.1"/>
<stop offset="1" stop-color="white" stop-opacity="0"/>
</linearGradient>
<linearGradient id="paint36_linear_368_558" x1="-21.7807" y1="505.653" x2="309.079" y2="236.233" gradientUnits="userSpaceOnUse">
<stop stop-color="white"/>
<stop offset="0.22" stop-color="white" stop-opacity="0.76"/>
<stop offset="0.6" stop-color="white" stop-opacity="0.36"/>
<stop offset="0.87" stop-color="white" stop-opacity="0.1"/>
<stop offset="1" stop-color="white" stop-opacity="0"/>
</linearGradient>
<linearGradient id="paint37_linear_368_558" x1="15.0893" y1="550.923" x2="345.939" y2="281.493" gradientUnits="userSpaceOnUse">
<stop stop-color="white"/>
<stop offset="0.22" stop-color="white" stop-opacity="0.76"/>
<stop offset="0.6" stop-color="white" stop-opacity="0.36"/>
<stop offset="0.87" stop-color="white" stop-opacity="0.1"/>
<stop offset="1" stop-color="white" stop-opacity="0"/>
</linearGradient>
<linearGradient id="paint38_linear_368_558" x1="64.2393" y1="611.273" x2="395.089" y2="341.853" gradientUnits="userSpaceOnUse">
<stop stop-color="white"/>
<stop offset="0.22" stop-color="white" stop-opacity="0.76"/>
<stop offset="0.6" stop-color="white" stop-opacity="0.36"/>
<stop offset="0.87" stop-color="white" stop-opacity="0.1"/>
<stop offset="1" stop-color="white" stop-opacity="0"/>
</linearGradient>
<linearGradient id="paint39_linear_368_558" x1="39.6593" y1="581.103" x2="370.519" y2="311.673" gradientUnits="userSpaceOnUse">
<stop stop-color="white"/>
<stop offset="0.22" stop-color="white" stop-opacity="0.76"/>
<stop offset="0.6" stop-color="white" stop-opacity="0.36"/>
<stop offset="0.87" stop-color="white" stop-opacity="0.1"/>
<stop offset="1" stop-color="white" stop-opacity="0"/>
</linearGradient>
<linearGradient id="paint40_linear_368_558" x1="59.2902" y1="605.203" x2="390.14" y2="335.773" gradientUnits="userSpaceOnUse">
<stop stop-color="white"/>
<stop offset="0.22" stop-color="white" stop-opacity="0.76"/>
<stop offset="0.6" stop-color="white" stop-opacity="0.36"/>
<stop offset="0.87" stop-color="white" stop-opacity="0.1"/>
<stop offset="1" stop-color="white" stop-opacity="0"/>
</linearGradient>
<linearGradient id="paint41_linear_368_558" x1="101.069" y1="656.503" x2="431.919" y2="387.083" gradientUnits="userSpaceOnUse">
<stop stop-color="white"/>
<stop offset="0.22" stop-color="white" stop-opacity="0.76"/>
<stop offset="0.6" stop-color="white" stop-opacity="0.36"/>
<stop offset="0.87" stop-color="white" stop-opacity="0.1"/>
<stop offset="1" stop-color="white" stop-opacity="0"/>
</linearGradient>
<linearGradient id="paint42_linear_368_558" x1="81.16" y1="632.053" x2="412.01" y2="362.623" gradientUnits="userSpaceOnUse">
<stop stop-color="white"/>
<stop offset="0.22" stop-color="white" stop-opacity="0.76"/>
<stop offset="0.6" stop-color="white" stop-opacity="0.36"/>
<stop offset="0.87" stop-color="white" stop-opacity="0.1"/>
<stop offset="1" stop-color="white" stop-opacity="0"/>
</linearGradient>
<linearGradient id="paint43_linear_368_558" x1="56.9905" y1="602.383" x2="387.851" y2="332.963" gradientUnits="userSpaceOnUse">
<stop stop-color="white"/>
<stop offset="0.22" stop-color="white" stop-opacity="0.76"/>
<stop offset="0.6" stop-color="white" stop-opacity="0.36"/>
<stop offset="0.87" stop-color="white" stop-opacity="0.1"/>
<stop offset="1" stop-color="white" stop-opacity="0"/>
</linearGradient>
<linearGradient id="paint44_linear_368_558" x1="47.2304" y1="590.393" x2="378.08" y2="320.963" gradientUnits="userSpaceOnUse">
<stop stop-color="white"/>
<stop offset="0.22" stop-color="white" stop-opacity="0.76"/>
<stop offset="0.6" stop-color="white" stop-opacity="0.36"/>
<stop offset="0.87" stop-color="white" stop-opacity="0.1"/>
<stop offset="1" stop-color="white" stop-opacity="0"/>
</linearGradient>
<linearGradient id="paint45_linear_368_558" x1="81.8899" y1="632.953" x2="412.75" y2="363.533" gradientUnits="userSpaceOnUse">
<stop stop-color="white"/>
<stop offset="0.22" stop-color="white" stop-opacity="0.76"/>
<stop offset="0.6" stop-color="white" stop-opacity="0.36"/>
<stop offset="0.87" stop-color="white" stop-opacity="0.1"/>
<stop offset="1" stop-color="white" stop-opacity="0"/>
</linearGradient>
<linearGradient id="paint46_linear_368_558" x1="103.95" y1="660.043" x2="434.8" y2="390.613" gradientUnits="userSpaceOnUse">
<stop stop-color="white"/>
<stop offset="0.22" stop-color="white" stop-opacity="0.76"/>
<stop offset="0.6" stop-color="white" stop-opacity="0.36"/>
<stop offset="0.87" stop-color="white" stop-opacity="0.1"/>
<stop offset="1" stop-color="white" stop-opacity="0"/>
</linearGradient>
<linearGradient id="paint47_linear_368_558" x1="148.061" y1="714.203" x2="478.911" y2="444.783" gradientUnits="userSpaceOnUse">
<stop stop-color="white"/>
<stop offset="0.22" stop-color="white" stop-opacity="0.76"/>
<stop offset="0.6" stop-color="white" stop-opacity="0.36"/>
<stop offset="0.87" stop-color="white" stop-opacity="0.1"/>
<stop offset="1" stop-color="white" stop-opacity="0"/>
</linearGradient>
<linearGradient id="paint48_linear_368_558" x1="140.81" y1="705.313" x2="471.66" y2="435.883" gradientUnits="userSpaceOnUse">
<stop stop-color="white"/>
<stop offset="0.22" stop-color="white" stop-opacity="0.76"/>
<stop offset="0.6" stop-color="white" stop-opacity="0.36"/>
<stop offset="0.87" stop-color="white" stop-opacity="0.1"/>
<stop offset="1" stop-color="white" stop-opacity="0"/>
</linearGradient>
<linearGradient id="paint49_linear_368_558" x1="182.571" y1="756.593" x2="513.431" y2="487.173" gradientUnits="userSpaceOnUse">
<stop stop-color="white"/>
<stop offset="0.22" stop-color="white" stop-opacity="0.76"/>
<stop offset="0.6" stop-color="white" stop-opacity="0.36"/>
<stop offset="0.87" stop-color="white" stop-opacity="0.1"/>
<stop offset="1" stop-color="white" stop-opacity="0"/>
</linearGradient>
<linearGradient id="paint50_linear_368_558" x1="175.48" y1="747.873" x2="506.33" y2="478.453" gradientUnits="userSpaceOnUse">
<stop stop-color="white"/>
<stop offset="0.22" stop-color="white" stop-opacity="0.76"/>
<stop offset="0.6" stop-color="white" stop-opacity="0.36"/>
<stop offset="0.87" stop-color="white" stop-opacity="0.1"/>
<stop offset="1" stop-color="white" stop-opacity="0"/>
</linearGradient>
<linearGradient id="paint51_linear_368_558" x1="217.38" y1="799.333" x2="548.23" y2="529.913" gradientUnits="userSpaceOnUse">
<stop stop-color="white"/>
<stop offset="0.22" stop-color="white" stop-opacity="0.76"/>
<stop offset="0.6" stop-color="white" stop-opacity="0.36"/>
<stop offset="0.87" stop-color="white" stop-opacity="0.1"/>
<stop offset="1" stop-color="white" stop-opacity="0"/>
</linearGradient>
<linearGradient id="paint52_linear_368_558" x1="222.431" y1="805.533" x2="553.281" y2="536.113" gradientUnits="userSpaceOnUse">
<stop stop-color="white"/>
<stop offset="0.22" stop-color="white" stop-opacity="0.76"/>
<stop offset="0.6" stop-color="white" stop-opacity="0.36"/>
<stop offset="0.87" stop-color="white" stop-opacity="0.1"/>
<stop offset="1" stop-color="white" stop-opacity="0"/>
</linearGradient>
<linearGradient id="paint53_linear_368_558" x1="214.769" y1="796.123" x2="545.619" y2="526.703" gradientUnits="userSpaceOnUse">
<stop stop-color="white"/>
<stop offset="0.22" stop-color="white" stop-opacity="0.76"/>
<stop offset="0.6" stop-color="white" stop-opacity="0.36"/>
<stop offset="0.87" stop-color="white" stop-opacity="0.1"/>
<stop offset="1" stop-color="white" stop-opacity="0"/>
</linearGradient>
</defs>
</svg>
