<svg width="859" height="622" viewBox="0 0 859 622" fill="none" xmlns="http://www.w3.org/2000/svg">
<mask id="mask0_368_496" style="mask-type:luminance" maskUnits="userSpaceOnUse" x="0" y="0" width="859" height="622">
<path d="M859 0H0V621.39H859V0Z" fill="white"/>
</mask>
<g mask="url(#mask0_368_496)">
<g opacity="0.5">
<path d="M826.331 560.05C825.508 560.054 824.711 559.769 824.078 559.244C823.445 558.72 823.017 557.989 822.869 557.18C822.721 556.371 822.863 555.536 823.269 554.821C823.675 554.106 824.32 553.557 825.091 553.27V506.87L781.451 481.68V431.29L780.211 430.57L781.451 429.85V428.42L782.691 429.14L823.841 405.38L739.061 356.43L694.181 382.34V280.13L654.001 256.94C653.367 257.44 652.583 257.713 651.776 257.713C650.968 257.713 650.184 257.44 649.551 256.94L606.891 281.56V228.31L607.521 227.95L650.521 203.11V201.68L651.761 202.4L653.011 201.68V203.11L696.641 228.31V277.26L737.791 253.51V204.56L694.161 179.36V131.53C693.495 131.279 692.922 130.831 692.517 130.246C692.112 129.661 691.895 128.966 691.895 128.255C691.895 127.544 692.112 126.849 692.517 126.264C692.922 125.679 693.495 125.231 694.161 124.98V77.15L694.781 76.8L737.781 51.98V0.139999L782.661 26.05L827.541 0.139999L871.241 -25V28.22L870.621 28.58L827.541 53.45V150.18C828.005 150.368 828.424 150.653 828.769 151.016C829.114 151.38 829.376 151.813 829.539 152.287C829.702 152.761 829.762 153.264 829.713 153.763C829.665 154.261 829.51 154.744 829.259 155.177C829.008 155.611 828.667 155.986 828.259 156.276C827.851 156.567 827.385 156.767 826.894 156.862C826.402 156.957 825.895 156.945 825.408 156.827C824.921 156.71 824.465 156.489 824.071 156.18L781.421 180.81V78.59L740.301 54.85V103.78L739.681 104.14L698.881 127.69C698.895 127.88 698.895 128.07 698.881 128.26C698.895 128.45 698.895 128.64 698.881 128.83L740.301 152.74V203.12L783.941 228.31V326.52C784.3 326.656 784.637 326.845 784.941 327.08L825.121 303.89V252.06V203.06L825.741 202.71L871.241 176.44V229.69L870.621 230.05L828.831 254.18L871.211 278.64V329.03L872.451 329.75L871.211 330.46V380.9L828.811 405.38L872.451 430.57L827.571 456.48V504L871.211 478.81V532.06L829.791 556C829.877 556.502 829.852 557.017 829.718 557.509C829.583 558 829.342 558.456 829.012 558.844C828.682 559.232 828.271 559.543 827.808 559.755C827.344 559.967 826.84 560.074 826.331 560.07V560.05ZM782.381 481.14L826.001 506.33V554L825.651 554.09C825.188 554.215 824.769 554.467 824.442 554.818C824.115 555.168 823.892 555.603 823.799 556.074C823.706 556.544 823.747 557.031 823.917 557.48C824.086 557.928 824.378 558.32 824.759 558.612C825.139 558.903 825.594 559.083 826.071 559.129C826.549 559.176 827.029 559.088 827.459 558.875C827.889 558.663 828.251 558.334 828.504 557.927C828.757 557.52 828.891 557.05 828.891 556.57C828.889 556.343 828.855 556.118 828.791 555.9L828.691 555.55L829.001 555.37L870.251 531.55V480.45L826.621 505.65V455.94L826.851 455.81L870.561 430.57L827.001 405.38L870.321 380.38V330L870.631 329.83L870.321 329.65V279.23L827.011 254.23L870.361 229.23V178.1L826.111 203.65V253.65V304.4L784.871 328.21L784.611 327.95C784.285 327.632 783.881 327.404 783.441 327.29L783.091 327.19V228.85L739.451 203.66V153.28L697.891 129.28L697.981 128.93C698.051 128.714 698.088 128.488 698.091 128.26C698.088 128.03 698.055 127.801 697.991 127.58L697.891 127.24L739.451 103.24V53.24L782.451 78.06V179.17L824.211 155L824.461 155.25C824.734 155.537 825.07 155.757 825.442 155.893C825.814 156.029 826.213 156.077 826.607 156.033C827.001 155.99 827.38 155.855 827.713 155.641C828.046 155.426 828.326 155.138 828.529 154.798C828.732 154.457 828.854 154.075 828.885 153.679C828.916 153.284 828.855 152.887 828.707 152.519C828.559 152.152 828.328 151.823 828.032 151.56C827.736 151.296 827.383 151.105 827.001 151L826.651 150.9V52.9L870.361 27.67V-23.43L826.601 1.81V1.76L782.661 27.13L738.661 1.76V52.52L695.061 77.69V125.69L694.711 125.78C694.148 125.914 693.648 126.234 693.289 126.687C692.931 127.141 692.736 127.702 692.736 128.28C692.736 128.858 692.931 129.419 693.289 129.873C693.648 130.326 694.148 130.646 694.711 130.78L695.061 130.87V178.87L738.751 204V254L695.751 278.83V228.83L652.111 203.63V203.27L651.801 203.45L651.491 203.28V203.63L607.861 228.82V279.92L649.721 255.76L649.971 256.01C650.461 256.485 651.118 256.751 651.801 256.751C652.484 256.751 653.14 256.485 653.631 256.01L653.891 255.76L695.131 279.57V380.72L739.131 355.35L825.781 405.35L782.781 430.18L782.471 430.01V430.36L782.171 430.54L782.471 430.72L782.381 481.14Z" fill="url(#paint0_linear_368_496)"/>
<path d="M826.672 253.68V204L869.672 179.16V228.83L826.672 253.68ZM827.612 204.55V252.06L868.762 228.31V180.79L827.612 204.55Z" fill="url(#paint1_linear_368_496)"/>
<path d="M826.641 404.84V355.17L826.871 355.03L869.661 330.33V380L869.421 380.14L826.641 404.84ZM827.571 355.71V403.22L868.721 379.47V332L827.571 355.71Z" fill="url(#paint2_linear_368_496)"/>
<path d="M869.66 329.26L826.66 304.42V254.75L869.66 279.59V329.26ZM827.57 303.89L868.72 327.64V280.13L827.57 256.37V303.89Z" fill="url(#paint3_linear_368_496)"/>
<path d="M826.33 354.63L785.08 330.82L785.17 330.47C785.233 330.252 785.267 330.027 785.27 329.8C785.267 329.57 785.233 329.341 785.17 329.12L785.08 328.78L826.33 305L869.33 329.84L826.33 354.63ZM786.15 330.36L826.33 353.56L867.48 329.8L826.33 306L786.15 329.19C786.169 329.38 786.169 329.57 786.15 329.76C786.172 329.959 786.172 330.161 786.15 330.36Z" fill="url(#paint4_linear_368_496)"/>
<path d="M780.611 328.24L739.361 304.43V254.76L782.361 279.59V327.22L782.021 327.32C781.578 327.434 781.171 327.662 780.841 327.98L780.611 328.24ZM740.301 303.89L780.471 327.08C780.774 326.844 781.111 326.655 781.471 326.52V280.13L740.321 256.38L740.301 303.89Z" fill="url(#paint5_linear_368_496)"/>
<path d="M783 127.72V78.05L826 53.21V102.89L783 127.72ZM783.93 78.59V126.1L825.08 102.35V54.83L783.93 78.59Z" fill="url(#paint6_linear_368_496)"/>
<path d="M783 178.1V128.44L826 103.6V150.87L825.65 150.97C825.102 151.115 824.617 151.436 824.27 151.885C823.923 152.333 823.733 152.883 823.73 153.45C823.733 153.677 823.767 153.902 823.83 154.12L823.92 154.47L783 178.1ZM783.93 128.97V176.49L822.84 154C822.801 153.816 822.781 153.628 822.78 153.44C822.783 152.729 823.001 152.036 823.407 151.452C823.812 150.868 824.385 150.421 825.05 150.17V105.17L783.93 128.97Z" fill="url(#paint7_linear_368_496)"/>
<path d="M826.672 52.16V2.48002L869.672 -22.35V27.32L826.672 52.16ZM827.612 3.00002V50.54L868.762 26.78V-20.74L827.612 3.00002Z" fill="url(#paint8_linear_368_496)"/>
<path d="M783 77.34V27.67L826 2.82996V52.5L783 77.34ZM783.93 28.21V75.72L825.05 52V4.44996L783.93 28.21Z" fill="url(#paint9_linear_368_496)"/>
<path d="M782.352 77.34L739.352 52.52V2.82996L782.352 27.67V77.34ZM740.302 52L781.422 75.74V28.21L740.262 4.44996V50.55L740.302 52Z" fill="url(#paint10_linear_368_496)"/>
<path d="M697.5 126.7L697.25 126.44C696.928 126.115 696.524 125.884 696.08 125.77L695.73 125.68V78.05L738.73 53.21V102.89L697.5 126.7ZM696.661 124.98C697.022 125.111 697.36 125.3 697.661 125.54L737.83 102.35V54.83L696.681 78.59L696.661 124.98Z" fill="url(#paint11_linear_368_496)"/>
<path d="M738.75 203.3L695.75 178.47V130.83L696.1 130.74C696.542 130.624 696.946 130.393 697.27 130.07L697.52 129.82L738.77 153.63L738.75 203.3ZM696.66 177.93L737.81 201.69V154.17L697.64 131C697.339 131.237 697.001 131.423 696.64 131.55L696.66 177.93Z" fill="url(#paint12_linear_368_496)"/>
<path d="M782.381 278.88L739.381 254.05V204.37L782.381 229.21V278.88ZM740.301 253.51L781.451 277.26V229.75L740.301 206V253.51Z" fill="url(#paint13_linear_368_496)"/>
<path d="M608.461 278.87V229.2L651.461 204.37V251.65L651.121 251.74C650.573 251.885 650.088 252.206 649.741 252.655C649.394 253.103 649.204 253.653 649.201 254.22C649.204 254.447 649.238 254.672 649.301 254.89L649.391 255.24L608.461 278.87ZM609.391 229.74V277.26L648.321 254.78C648.307 254.594 648.307 254.406 648.321 254.22C648.324 253.509 648.542 252.816 648.948 252.232C649.353 251.648 649.926 251.201 650.591 250.95V206L609.391 229.74Z" fill="url(#paint14_linear_368_496)"/>
<path d="M695.112 278.87L654.172 255.24L654.262 254.89C654.325 254.672 654.359 254.447 654.362 254.22C654.359 253.653 654.169 253.103 653.822 252.655C653.475 252.206 652.99 251.885 652.442 251.74L652.092 251.65V204.37L695.092 229.2L695.112 278.87ZM655.242 254.78L694.182 277.26V229.74L653.002 206V251C653.666 251.252 654.237 251.699 654.641 252.283C655.045 252.867 655.261 253.56 655.262 254.27C655.271 254.44 655.264 254.611 655.242 254.78Z" fill="url(#paint15_linear_368_496)"/>
<path d="M695.73 329.26V279.59L738.73 254.76V304.43L695.73 329.26ZM696.661 280.13V327.65L737.811 303.89V256.38L696.661 280.13Z" fill="url(#paint16_linear_368_496)"/>
<path d="M695.73 379.65V330L738.73 305.16V354.83L738.49 354.97L695.73 379.65ZM696.661 330.52V378L737.811 354.24V306.76L696.661 330.52Z" fill="url(#paint17_linear_368_496)"/>
<path d="M782.381 379.65L739.381 354.81V305.14L780.381 328.78L780.291 329.13C780.224 329.347 780.187 329.573 780.181 329.8C780.185 330.368 780.376 330.919 780.725 331.368C781.074 331.816 781.561 332.137 782.111 332.28L782.451 332.37L782.381 379.65ZM740.301 354.27L781.451 378V333C780.786 332.749 780.213 332.302 779.807 331.718C779.402 331.134 779.184 330.441 779.181 329.73C779.167 329.544 779.167 329.356 779.181 329.17L740.251 306.69L740.301 354.27Z" fill="url(#paint18_linear_368_496)"/>
<path d="M826 404.84L783 380V332.37L783.35 332.28C783.793 332.166 784.197 331.935 784.52 331.61L784.77 331.36L826 355.17V404.84ZM783.92 379.47L825.07 403.22V355.71L784.89 332.51C784.591 332.753 784.253 332.942 783.89 333.07L783.92 379.47Z" fill="url(#paint19_linear_368_496)"/>
<path d="M826.33 455.41L783.33 430.57L826.33 405.73L869.33 430.57L826.33 455.41ZM785.18 430.57L826.33 454.33L867.48 430.57L826.33 406.81L785.18 430.57Z" fill="url(#paint20_linear_368_496)"/>
<path d="M826 505.62L783 480.78V431.11L826 455.94V505.62ZM783.92 480.24L825.09 504V456.48L783.94 432.72L783.92 480.24Z" fill="url(#paint21_linear_368_496)"/>
<path d="M828.411 555L828.161 554.74C827.835 554.422 827.432 554.194 826.991 554.08L826.641 553.99V506.33L826.871 506.2L869.661 481.49V531.17L869.421 531.3L828.411 555ZM827.571 553.29C827.932 553.417 828.27 553.603 828.571 553.84L868.741 530.65V483.11L827.591 506.87L827.571 553.29Z" fill="url(#paint22_linear_368_496)"/>
<path d="M608.151 182.15C607.328 182.157 606.529 181.873 605.894 181.349C605.259 180.825 604.829 180.094 604.68 179.285C604.531 178.475 604.671 177.639 605.078 176.923C605.484 176.207 606.129 175.657 606.901 175.37V130.37L564.511 154.84L520.871 129.65L477.241 154.84L433.601 129.65L388.721 155.6V102.35L389.341 101.99L430.141 78.43C430.127 78.2436 430.127 78.0564 430.141 77.87C430.144 77.1592 430.362 76.466 430.768 75.8821C431.173 75.2982 431.746 74.8511 432.411 74.6V28.2L391.211 4.43999V53.44L390.581 53.79L347.581 78.63V125C348.048 125.185 348.47 125.469 348.817 125.832C349.165 126.195 349.43 126.628 349.596 127.103C349.761 127.577 349.822 128.082 349.775 128.582C349.728 129.082 349.573 129.566 349.322 130.002C349.071 130.437 348.729 130.813 348.32 131.105C347.911 131.396 347.443 131.596 346.95 131.691C346.456 131.785 345.948 131.773 345.46 131.653C344.972 131.534 344.515 131.311 344.121 131L301.461 155.63V102.35L302.081 101.99L345.081 77.16V-20.75L303.931 2.99998V54.83L259.051 28.92L217.901 52.67L260.301 77.15V130.4L216.661 105.21V155.59L170.541 129V81.14C170.179 81.0092 169.841 80.82 169.541 80.58L126.901 105.21V53.39L85.7509 29.63V78.63L85.1309 78.98L39.6309 105.25V53.39L-0.539062 30.2C-1.0536 30.6197 -1.67664 30.8848 -2.33582 30.9646C-2.99499 31.0443 -3.66332 30.9355 -4.26312 30.6507C-4.86293 30.3659 -5.36962 29.9168 -5.72443 29.3556C-6.07923 28.7943 -6.26758 28.144 -6.26758 27.48C-6.26758 26.816 -6.07923 26.1656 -5.72443 25.6044C-5.36962 25.0431 -4.86293 24.5941 -4.26312 24.3093C-3.66332 24.0245 -2.99499 23.9156 -2.33582 23.9954C-1.67664 24.0752 -1.0536 24.3403 -0.539062 24.76L39.6309 1.56998V-50.25L129.391 1.56998V50.57L170.541 26.81V-25L215.421 0.859985L257.811 -23.62V-25L259.051 -24.29L260.301 -25V-23.57L301.451 0.139984V-48.81L302.071 -49.17L347.571 -75.44L391.211 -100.64V-48.83L431.381 -25.64C431.684 -25.8764 432.021 -26.0653 432.381 -26.2V-75.44L477.261 -49.53L478.501 -50.25V-48.81L519.651 -25.06V-74L520.271 -74.35L565.771 -100.62V-47.37L565.151 -47.01L522.151 -22.18V26.82L523.391 27.53L522.151 28.25V78.59L521.521 78.95L479.751 103.06L520.901 126.82L563.301 102.35V5.56998C562.695 5.35164 562.161 4.97084 561.757 4.46928C561.353 3.96772 561.095 3.36473 561.011 2.7263C560.927 2.08786 561.02 1.4386 561.28 0.849564C561.541 0.260531 561.958 -0.245565 562.486 -0.613335C563.015 -0.981104 563.635 -1.19637 564.277 -1.23557C564.92 -1.27477 565.561 -1.13641 566.131 -0.835602C566.7 -0.534798 567.176 -0.0831565 567.506 0.469887C567.835 1.02293 568.007 1.65607 568.001 2.29999C568.015 2.48639 568.015 2.67358 568.001 2.85999L608.181 26.05L649.351 2.27998L607.001 -22.17V-75.43L653.121 -48.8V0.149986L696.731 -25V24.79C697.223 24.9795 697.666 25.2776 698.026 25.6622C698.387 26.0467 698.656 26.5077 698.813 27.0108C698.97 27.5138 699.012 28.046 698.935 28.5674C698.858 29.0889 698.664 29.5862 698.368 30.0223C698.072 30.4584 697.681 30.8219 697.225 31.0858C696.769 31.3497 696.259 31.5071 695.733 31.5463C695.207 31.5855 694.68 31.5055 694.189 31.3122C693.699 31.1189 693.258 30.8173 692.901 30.43L653.031 53.43V154.17L652.401 154.52L611.601 178.08C611.64 178.264 611.66 178.452 611.661 178.64C611.661 179.571 611.291 180.464 610.633 181.122C609.975 181.78 609.082 182.15 608.151 182.15ZM607.841 128.79V176.07L607.491 176.16C607.027 176.283 606.607 176.534 606.278 176.884C605.949 177.234 605.725 177.669 605.631 178.139C605.537 178.61 605.576 179.098 605.745 179.547C605.914 179.997 606.205 180.39 606.586 180.682C606.967 180.975 607.422 181.154 607.899 181.201C608.377 181.248 608.859 181.161 609.289 180.948C609.719 180.736 610.082 180.407 610.335 179.999C610.588 179.591 610.722 179.12 610.721 178.64C610.718 178.413 610.685 178.188 610.621 177.97L610.531 177.62L652.091 153.62V52.91L693.151 29.21L693.391 29.55C693.634 29.8805 693.952 30.1482 694.319 30.3306C694.687 30.513 695.092 30.6049 695.502 30.5985C695.912 30.5921 696.315 30.4877 696.676 30.2939C697.038 30.1002 697.348 29.8227 697.58 29.4848C697.812 29.1468 697.961 28.7582 698.012 28.3513C698.063 27.9444 698.017 27.5311 697.876 27.146C697.735 26.7608 697.504 26.4149 697.202 26.1373C696.9 25.8597 696.536 25.6583 696.141 25.55L695.801 25.46V-23.42L652.161 1.76998V-48.23L607.911 -73.78V-22.68L651.191 2.31998L608.191 27.17L566.891 3.30998L567.001 2.99998C567.064 2.78214 567.098 2.55679 567.101 2.32999C567.104 1.84751 566.971 1.37395 566.718 0.963104C566.465 0.552255 566.102 0.220572 565.67 0.00572968C565.238 -0.209112 564.754 -0.298508 564.274 -0.252304C563.794 -0.2061 563.336 -0.0261422 562.953 0.26712C562.57 0.560383 562.276 0.955204 562.106 1.40675C561.936 1.85829 561.896 2.34845 561.991 2.82158C562.086 3.29471 562.311 3.73183 562.641 4.08331C562.972 4.4348 563.394 4.68655 563.861 4.80998L564.211 4.89999V102.9L520.881 127.9L477.881 103.06L521.211 78.06V27.66L521.521 27.48L521.211 27.3V-22.7L564.851 -47.89V-99L520.591 -73.45V-23.45L477.591 -48.29V-48.64L477.281 -48.46L433.281 -73.84V-25.49L432.931 -25.4C432.489 -25.2821 432.086 -25.0512 431.761 -24.73L431.511 -24.47L390.271 -48.27V-99L346.641 -73.81L302.381 -48.27V1.72999L259.381 -23.11V-23.47L259.071 -23.29L258.771 -23.47V-23.11L215.441 1.88998L171.471 -23.44V27.3L128.471 52.14V2.13998L40.5609 -48.64V2.10999L-0.679077 25.92L-0.939087 25.67C-1.17713 25.4258 -1.46173 25.2318 -1.77606 25.0996C-2.09039 24.9673 -2.42808 24.8994 -2.7691 24.9C-3.45336 24.9 -4.1096 25.1718 -4.59344 25.6556C-5.07729 26.1395 -5.34906 26.7957 -5.34906 27.48C-5.34906 28.1642 -5.07729 28.8205 -4.59344 29.3043C-4.1096 29.7882 -3.45336 30.06 -2.7691 30.06C-2.42871 30.0624 -2.09129 29.9964 -1.77692 29.8658C-1.46255 29.7352 -1.17763 29.5428 -0.939087 29.3L-0.679077 29.04L40.5609 52.85V103.6L84.8209 78.05V28L127.821 52.83V103.57L169.701 79.42L169.951 79.68C170.273 80.0046 170.678 80.2361 171.121 80.35L171.471 80.44V128.44L215.731 154V103.59L259.361 128.78V77.69L216.001 52.67L259.001 27.84L303.001 53.21V2.46999L346.001 -22.37V77.7L302.361 102.89V154L344.221 129.83L344.481 130.09C344.76 130.369 345.099 130.58 345.472 130.707C345.846 130.834 346.243 130.873 346.634 130.821C347.025 130.77 347.399 130.629 347.727 130.41C348.055 130.19 348.328 129.899 348.525 129.557C348.722 129.216 348.838 128.833 348.863 128.44C348.889 128.046 348.823 127.652 348.672 127.288C348.521 126.924 348.288 126.599 347.991 126.339C347.695 126.08 347.342 125.892 346.961 125.79L346.621 125.7V78.05L390.251 52.86V2.85999L433.251 27.69V75.3L432.901 75.39C432.353 75.535 431.868 75.8565 431.521 76.3047C431.174 76.753 430.984 77.3031 430.981 77.87C430.983 78.0969 431.017 78.3223 431.081 78.54L431.181 78.89L389.611 102.89V154L433.611 128.63L477.251 153.83L520.881 128.63L564.521 153.83L607.841 128.79Z" fill="url(#paint23_linear_368_496)"/>
<path d="M610.231 177.08L609.981 176.83C609.655 176.505 609.247 176.274 608.801 176.16L608.461 176.07V128.44L651.461 103.6V153.27L610.231 177.08ZM609.391 175.37C609.752 175.497 610.09 175.683 610.391 175.92L650.561 152.73V105.22L609.391 129V175.37Z" fill="url(#paint24_linear_368_496)"/>
<path d="M607.842 127.72L564.842 102.89V53.21L607.842 78.05V127.72ZM565.752 102.35L606.902 126.11V78.59L565.752 54.83V102.35Z" fill="url(#paint25_linear_368_496)"/>
<path d="M608.461 127.72V78.05L651.461 53.21V102.89L608.461 127.72ZM609.391 78.59V126.1L650.541 102.35V54.83L609.391 78.59Z" fill="url(#paint26_linear_368_496)"/>
<path d="M608.461 77.34V27.67L651.461 2.82996V52.5L608.461 77.34ZM609.391 28.21V75.72L650.541 52V4.44996L609.391 28.21Z" fill="url(#paint27_linear_368_496)"/>
<path d="M652.16 52.16V2.48002L695.16 -22.35V25.49L694.81 25.58C694.262 25.725 693.777 26.0465 693.43 26.4948C693.083 26.943 692.893 27.4931 692.89 28.06C692.89 28.06 692.89 28.14 692.89 28.18V28.6L652.16 52.16ZM653.09 3.00002V50.54L692 28.09C692 27.3786 692.217 26.6841 692.623 26.0997C693.029 25.5152 693.604 25.0687 694.27 24.82V-20.74L653.09 3.00002Z" fill="url(#paint28_linear_368_496)"/>
<path d="M651.541 1.77L608.541 -23.07V-72.74L651.541 -47.9V1.77ZM609.461 -23.61L650.611 0.150009V-47.36L609.461 -71.12V-23.61Z" fill="url(#paint29_linear_368_496)"/>
<path d="M607.842 77.33L564.842 52.5V4.86998L565.192 4.77998C565.635 4.66612 566.039 4.43463 566.362 4.10998L566.612 3.84998L607.862 27.67L607.842 77.33ZM565.752 52L606.902 75.76V28.21L566.732 4.99998C566.431 5.24002 566.094 5.42919 565.732 5.55998L565.752 52Z" fill="url(#paint30_linear_368_496)"/>
<path d="M477.24 52.32L434.24 27.48L477.24 2.65002L520.24 27.48L477.24 52.32ZM436.09 27.48L477.24 51.24L518.39 27.48L477.24 3.72002L436.09 27.48Z" fill="url(#paint31_linear_368_496)"/>
<path d="M433.91 27V-20.33L434.26 -20.42C434.703 -20.5338 435.108 -20.7653 435.43 -21.09L435.68 -21.34L476.62 2.29004L433.91 27ZM434.84 -19.58V25.42L474.75 2.42003L435.82 -20.06C435.519 -19.8641 435.188 -19.7189 434.84 -19.63V-19.58Z" fill="url(#paint32_linear_368_496)"/>
<path d="M476.932 1.74994L435.932 -21.8801L436.032 -22.2301C436.095 -22.4479 436.129 -22.6733 436.132 -22.9001C436.129 -23.1302 436.095 -23.3588 436.032 -23.5801L435.932 -23.9201L476.932 -47.5601V1.74994ZM437.062 -22.3401L476.002 0.139942V-45.9501L437.062 -23.4701C437.092 -23.2815 437.109 -23.091 437.112 -22.9001C437.109 -22.7124 437.092 -22.5252 437.062 -22.3401Z" fill="url(#paint33_linear_368_496)"/>
<path d="M476.931 102.53L435.931 78.89L436.031 78.54C436.095 78.3223 436.129 78.0969 436.131 77.87C436.128 77.3031 435.938 76.753 435.591 76.3048C435.244 75.8565 434.759 75.535 434.211 75.39L433.861 75.3V28L476.861 52.84L476.931 102.53ZM437.061 78.43L476.001 100.91V53.39L434.841 29.63V74.63C435.508 74.8787 436.083 75.3252 436.488 75.9096C436.894 76.4941 437.111 77.1885 437.111 77.9C437.108 78.0777 437.091 78.2548 437.061 78.43Z" fill="url(#paint34_linear_368_496)"/>
<path d="M433.91 127.72V80.4499L434.26 80.3499C434.703 80.2361 435.108 80.0046 435.43 79.6799L435.68 79.4299L476.62 103.06L433.91 127.72ZM434.84 81.1399V126.14L474.75 103.14L435.82 80.6699C435.52 80.8768 435.189 81.0354 434.84 81.1399Z" fill="url(#paint35_linear_368_496)"/>
<path d="M477.551 102.53V52.86L520.551 28.02V77.69L477.551 102.53ZM478.481 53.39V100.91L519.631 77.15V29.63L478.481 53.39Z" fill="url(#paint36_linear_368_496)"/>
<path d="M520.561 26.9999L477.561 2.15994V-47.5601L520.561 -22.7201V26.9999ZM478.48 1.56994L519.63 25.3299V-22.1901L478.48 -45.9501V1.56994Z" fill="url(#paint37_linear_368_496)"/>
<path d="M215.73 52.14V2.47001L258.73 -22.37V27.3L215.73 52.14ZM216.66 3.00001V50.52L257.81 26.76V-20.75L216.66 3.00001Z" fill="url(#paint38_linear_368_496)"/>
<path d="M215.111 52.14L172.111 27.3V-22.37L215.111 2.47001V52.14ZM173.001 26.76L214.161 50.52V3.00001L173.001 -20.75V26.76Z" fill="url(#paint39_linear_368_496)"/>
<path d="M215.111 102.52L174.111 78.88L174.211 78.54C174.274 78.3222 174.308 78.0968 174.311 77.87C174.31 77.3014 174.121 76.749 173.774 76.2987C173.427 75.8484 172.941 75.5255 172.391 75.38L172.041 75.29V28L215.041 52.83L215.111 102.52ZM175.241 78.43L214.181 100.9V53.39L173.001 29.63V74.63C173.668 74.8805 174.243 75.3288 174.649 75.915C175.055 76.5011 175.272 77.1972 175.271 77.91C175.273 78.0838 175.263 78.2576 175.241 78.43Z" fill="url(#paint40_linear_368_496)"/>
<path d="M127.842 52.14L84.8418 27.3V-22.37L127.842 2.47001V52.14ZM85.7518 26.76L126.902 50.52V3.00001L85.7518 -20.75V26.76Z" fill="url(#paint41_linear_368_496)"/>
<path d="M84.2012 26.9999L41.2012 2.15993V-47.5701L84.2012 -22.7301V26.9999ZM42.1111 1.56993L83.2712 25.3299V-22.1901L42.1111 -45.9501V1.56993Z" fill="url(#paint42_linear_368_496)"/>
<path d="M40.8711 52.32L-0.378906 28.5L-0.288879 28.15C-0.224933 27.9323 -0.191308 27.7069 -0.188904 27.48C-0.192052 27.2532 -0.225662 27.0279 -0.288879 26.81L-0.378906 26.46L40.8711 2.64001L83.8711 27.48L40.8711 52.32ZM0.691101 28L40.8711 51.2L82.0011 27.48L40.8711 3.72001L0.691101 26.92C0.729805 27.1042 0.749903 27.2918 0.751099 27.48C0.747739 27.6549 0.72765 27.829 0.691101 28Z" fill="url(#paint43_linear_368_496)"/>
<path d="M41.1816 102.53V52.85L84.2017 28V77.69L41.1816 102.53ZM42.1116 53.39V100.91L83.2717 77.15V29.63L42.1116 53.39Z" fill="url(#paint44_linear_368_496)"/>
<path d="M128.451 102.52V52.85L171.451 28.02V75.29L171.101 75.38C170.551 75.5255 170.065 75.8485 169.718 76.2987C169.371 76.749 169.182 77.3014 169.181 77.87C169.189 78.0964 169.223 78.3212 169.281 78.54L169.381 78.88L128.451 102.52ZM129.391 53.39V100.9L168.321 78.43C168.291 78.2449 168.274 78.0577 168.271 77.87C168.272 77.1575 168.489 76.4621 168.895 75.8762C169.3 75.2903 169.875 74.8417 170.541 74.59V29.59L129.391 53.39Z" fill="url(#paint45_linear_368_496)"/>
<path d="M215.111 152.91L172.111 128.07V80.4399L172.461 80.3499C172.905 80.2361 173.309 80.0046 173.631 79.6799L173.881 79.4199L215.131 103.24L215.111 152.91ZM173.001 127.53L214.161 151.29V103.77L174.001 80.5799C173.701 80.82 173.363 81.0091 173.001 81.1399V127.53Z" fill="url(#paint46_linear_368_496)"/>
<path d="M258.75 127.72L215.75 102.88V53.21L258.75 78.04V127.72ZM216.66 102.34L257.81 126.1V78.58L216.66 54.83V102.34Z" fill="url(#paint47_linear_368_496)"/>
<path d="M302.381 52.14L259.381 27.31V-22.37L302.381 2.47001V52.14ZM260.301 26.77L301.451 50.53V3.00001L260.301 -20.75V26.77Z" fill="url(#paint48_linear_368_496)"/>
<path d="M303 1.76V-47.91L346 -72.75V-23.08L303 1.76ZM303.93 -47.37V0.139999L345.09 -23.62V-71.13L303.93 -47.37Z" fill="url(#paint49_linear_368_496)"/>
<path d="M346.641 27V-22.71L389.641 -47.55V2.10995L346.641 27ZM347.571 -22.1201V25.38L388.721 1.56995V-45.93L347.571 -22.1201Z" fill="url(#paint50_linear_368_496)"/>
<path d="M303 152.92V103.25L346 78.41V125.69L345.65 125.78C345.102 125.925 344.617 126.247 344.27 126.695C343.923 127.143 343.733 127.693 343.73 128.26C343.732 128.487 343.765 128.712 343.83 128.93L343.93 129.28L303 152.92ZM303.93 103.79V151.31L342.87 128.83C342.851 128.641 342.851 128.45 342.87 128.26C342.87 127.549 343.087 126.854 343.493 126.27C343.899 125.685 344.473 125.239 345.14 124.99V80L303.93 103.79Z" fill="url(#paint51_linear_368_496)"/>
<path d="M346.641 77.34V27.66L389.641 2.82996V52.5L346.641 77.34ZM347.571 28.2V75.72L388.721 52V4.43996L347.571 28.2Z" fill="url(#paint52_linear_368_496)"/>
<path d="M433.291 26.9999L390.291 2.15994V-47.5601L431.291 -23.9201L431.191 -23.5701C431.126 -23.3525 431.093 -23.127 431.091 -22.9001C431.094 -22.3332 431.284 -21.7831 431.631 -21.3348C431.978 -20.8866 432.463 -20.5651 433.011 -20.4201L433.361 -20.3301L433.291 26.9999ZM391.211 1.56994L432.361 25.3299V-19.6701C431.696 -19.9212 431.123 -20.3682 430.718 -20.9521C430.312 -21.536 430.094 -22.2293 430.091 -22.9401C430.076 -23.1264 430.076 -23.3137 430.091 -23.5001L391.211 -45.9401V1.56994Z" fill="url(#paint53_linear_368_496)"/>
<path d="M390.271 152.91V103.24L431.521 79.4299L431.771 79.6899C432.097 80.0082 432.501 80.2358 432.941 80.3499L433.291 80.4499V128.08L390.271 152.91ZM391.211 103.78V151.3L432.361 127.54V81.1399C432 81.0127 431.662 80.8269 431.361 80.5899L391.211 103.78Z" fill="url(#paint54_linear_368_496)"/>
<path d="M477.24 153.09L434.24 128.26L477.24 103.42L520.24 128.26L477.24 153.09ZM436.09 128.26L477.24 152L518.39 128.24L477.24 104.48L436.09 128.26Z" fill="url(#paint55_linear_368_496)"/>
<path d="M564.512 153.09L521.512 128.26L564.512 103.42L607.512 128.26L564.512 153.09ZM523.362 128.26L564.512 152L605.662 128.24L564.512 104.48L523.362 128.26Z" fill="url(#paint56_linear_368_496)"/>
</g>
</g>
<defs>
<linearGradient id="paint0_linear_368_496" x1="1028.02" y1="68.57" x2="621.231" y2="428.06" gradientUnits="userSpaceOnUse">
<stop stop-color="white"/>
<stop offset="0.22" stop-color="white" stop-opacity="0.76"/>
<stop offset="0.6" stop-color="white" stop-opacity="0.36"/>
<stop offset="0.87" stop-color="white" stop-opacity="0.1"/>
<stop offset="1" stop-color="white" stop-opacity="0"/>
</linearGradient>
<linearGradient id="paint1_linear_368_496" x1="1022.53" y1="62.3499" x2="615.742" y2="421.85" gradientUnits="userSpaceOnUse">
<stop stop-color="white"/>
<stop offset="0.22" stop-color="white" stop-opacity="0.76"/>
<stop offset="0.6" stop-color="white" stop-opacity="0.36"/>
<stop offset="0.87" stop-color="white" stop-opacity="0.1"/>
<stop offset="1" stop-color="white" stop-opacity="0"/>
</linearGradient>
<linearGradient id="paint2_linear_368_496" x1="1097.52" y1="147.21" x2="690.731" y2="506.7" gradientUnits="userSpaceOnUse">
<stop stop-color="white"/>
<stop offset="0.22" stop-color="white" stop-opacity="0.76"/>
<stop offset="0.6" stop-color="white" stop-opacity="0.36"/>
<stop offset="0.87" stop-color="white" stop-opacity="0.1"/>
<stop offset="1" stop-color="white" stop-opacity="0"/>
</linearGradient>
<linearGradient id="paint3_linear_368_496" x1="1060.02" y1="104.77" x2="653.22" y2="464.26" gradientUnits="userSpaceOnUse">
<stop stop-color="white"/>
<stop offset="0.22" stop-color="white" stop-opacity="0.76"/>
<stop offset="0.6" stop-color="white" stop-opacity="0.36"/>
<stop offset="0.87" stop-color="white" stop-opacity="0.1"/>
<stop offset="1" stop-color="white" stop-opacity="0"/>
</linearGradient>
<linearGradient id="paint4_linear_368_496" x1="1069.34" y1="115.32" x2="662.54" y2="474.81" gradientUnits="userSpaceOnUse">
<stop stop-color="white"/>
<stop offset="0.22" stop-color="white" stop-opacity="0.76"/>
<stop offset="0.6" stop-color="white" stop-opacity="0.36"/>
<stop offset="0.87" stop-color="white" stop-opacity="0.1"/>
<stop offset="1" stop-color="white" stop-opacity="0"/>
</linearGradient>
<linearGradient id="paint5_linear_368_496" x1="1021.24" y1="60.9" x2="614.451" y2="420.39" gradientUnits="userSpaceOnUse">
<stop stop-color="white"/>
<stop offset="0.22" stop-color="white" stop-opacity="0.76"/>
<stop offset="0.6" stop-color="white" stop-opacity="0.36"/>
<stop offset="0.87" stop-color="white" stop-opacity="0.1"/>
<stop offset="1" stop-color="white" stop-opacity="0"/>
</linearGradient>
<linearGradient id="paint6_linear_368_496" x1="940.86" y1="-30.06" x2="534.07" y2="329.43" gradientUnits="userSpaceOnUse">
<stop stop-color="white"/>
<stop offset="0.22" stop-color="white" stop-opacity="0.76"/>
<stop offset="0.6" stop-color="white" stop-opacity="0.36"/>
<stop offset="0.87" stop-color="white" stop-opacity="0.1"/>
<stop offset="1" stop-color="white" stop-opacity="0"/>
</linearGradient>
<linearGradient id="paint7_linear_368_496" x1="965.71" y1="-1.95004" x2="558.91" y2="357.54" gradientUnits="userSpaceOnUse">
<stop stop-color="white"/>
<stop offset="0.22" stop-color="white" stop-opacity="0.76"/>
<stop offset="0.6" stop-color="white" stop-opacity="0.36"/>
<stop offset="0.87" stop-color="white" stop-opacity="0.1"/>
<stop offset="1" stop-color="white" stop-opacity="0"/>
</linearGradient>
<linearGradient id="paint8_linear_368_496" x1="922.532" y1="-50.8" x2="515.742" y2="308.69" gradientUnits="userSpaceOnUse">
<stop stop-color="white"/>
<stop offset="0.22" stop-color="white" stop-opacity="0.76"/>
<stop offset="0.6" stop-color="white" stop-opacity="0.36"/>
<stop offset="0.87" stop-color="white" stop-opacity="0.1"/>
<stop offset="1" stop-color="white" stop-opacity="0"/>
</linearGradient>
<linearGradient id="paint9_linear_368_496" x1="915.86" y1="-58.35" x2="509.07" y2="301.14" gradientUnits="userSpaceOnUse">
<stop stop-color="white"/>
<stop offset="0.22" stop-color="white" stop-opacity="0.76"/>
<stop offset="0.6" stop-color="white" stop-opacity="0.36"/>
<stop offset="0.87" stop-color="white" stop-opacity="0.1"/>
<stop offset="1" stop-color="white" stop-opacity="0"/>
</linearGradient>
<linearGradient id="paint10_linear_368_496" x1="896.732" y1="-80" x2="489.932" y2="279.49" gradientUnits="userSpaceOnUse">
<stop stop-color="white"/>
<stop offset="0.22" stop-color="white" stop-opacity="0.76"/>
<stop offset="0.6" stop-color="white" stop-opacity="0.36"/>
<stop offset="0.87" stop-color="white" stop-opacity="0.1"/>
<stop offset="1" stop-color="white" stop-opacity="0"/>
</linearGradient>
<linearGradient id="paint11_linear_368_496" x1="902.61" y1="-73.35" x2="495.81" y2="286.14" gradientUnits="userSpaceOnUse">
<stop stop-color="white"/>
<stop offset="0.22" stop-color="white" stop-opacity="0.76"/>
<stop offset="0.6" stop-color="white" stop-opacity="0.36"/>
<stop offset="0.87" stop-color="white" stop-opacity="0.1"/>
<stop offset="1" stop-color="white" stop-opacity="0"/>
</linearGradient>
<linearGradient id="paint12_linear_368_496" x1="940.62" y1="-30.34" x2="533.82" y2="329.15" gradientUnits="userSpaceOnUse">
<stop stop-color="white"/>
<stop offset="0.22" stop-color="white" stop-opacity="0.76"/>
<stop offset="0.6" stop-color="white" stop-opacity="0.36"/>
<stop offset="0.87" stop-color="white" stop-opacity="0.1"/>
<stop offset="1" stop-color="white" stop-opacity="0"/>
</linearGradient>
<linearGradient id="paint13_linear_368_496" x1="996.751" y1="33.18" x2="589.961" y2="392.67" gradientUnits="userSpaceOnUse">
<stop stop-color="white"/>
<stop offset="0.22" stop-color="white" stop-opacity="0.76"/>
<stop offset="0.6" stop-color="white" stop-opacity="0.36"/>
<stop offset="0.87" stop-color="white" stop-opacity="0.1"/>
<stop offset="1" stop-color="white" stop-opacity="0"/>
</linearGradient>
<linearGradient id="paint14_linear_368_496" x1="939.181" y1="-31.96" x2="532.391" y2="327.53" gradientUnits="userSpaceOnUse">
<stop stop-color="white"/>
<stop offset="0.22" stop-color="white" stop-opacity="0.76"/>
<stop offset="0.6" stop-color="white" stop-opacity="0.36"/>
<stop offset="0.87" stop-color="white" stop-opacity="0.1"/>
<stop offset="1" stop-color="white" stop-opacity="0"/>
</linearGradient>
<linearGradient id="paint15_linear_368_496" x1="958.482" y1="-10.13" x2="551.682" y2="349.36" gradientUnits="userSpaceOnUse">
<stop stop-color="white"/>
<stop offset="0.22" stop-color="white" stop-opacity="0.76"/>
<stop offset="0.6" stop-color="white" stop-opacity="0.36"/>
<stop offset="0.87" stop-color="white" stop-opacity="0.1"/>
<stop offset="1" stop-color="white" stop-opacity="0"/>
</linearGradient>
<linearGradient id="paint16_linear_368_496" x1="1002.61" y1="39.82" x2="595.82" y2="399.31" gradientUnits="userSpaceOnUse">
<stop stop-color="white"/>
<stop offset="0.22" stop-color="white" stop-opacity="0.76"/>
<stop offset="0.6" stop-color="white" stop-opacity="0.36"/>
<stop offset="0.87" stop-color="white" stop-opacity="0.1"/>
<stop offset="1" stop-color="white" stop-opacity="0"/>
</linearGradient>
<linearGradient id="paint17_linear_368_496" x1="1027.62" y1="68.1099" x2="620.82" y2="427.6" gradientUnits="userSpaceOnUse">
<stop stop-color="white"/>
<stop offset="0.22" stop-color="white" stop-opacity="0.76"/>
<stop offset="0.6" stop-color="white" stop-opacity="0.36"/>
<stop offset="0.87" stop-color="white" stop-opacity="0.1"/>
<stop offset="1" stop-color="white" stop-opacity="0"/>
</linearGradient>
<linearGradient id="paint18_linear_368_496" x1="1046.75" y1="89.7601" x2="639.961" y2="449.25" gradientUnits="userSpaceOnUse">
<stop stop-color="white"/>
<stop offset="0.22" stop-color="white" stop-opacity="0.76"/>
<stop offset="0.6" stop-color="white" stop-opacity="0.36"/>
<stop offset="0.87" stop-color="white" stop-opacity="0.1"/>
<stop offset="1" stop-color="white" stop-opacity="0"/>
</linearGradient>
<linearGradient id="paint19_linear_368_496" x1="1078.89" y1="126.13" x2="672.1" y2="485.62" gradientUnits="userSpaceOnUse">
<stop stop-color="white"/>
<stop offset="0.22" stop-color="white" stop-opacity="0.76"/>
<stop offset="0.6" stop-color="white" stop-opacity="0.36"/>
<stop offset="0.87" stop-color="white" stop-opacity="0.1"/>
<stop offset="1" stop-color="white" stop-opacity="0"/>
</linearGradient>
<linearGradient id="paint20_linear_368_496" x1="1119.21" y1="171.75" x2="712.41" y2="531.24" gradientUnits="userSpaceOnUse">
<stop stop-color="white"/>
<stop offset="0.22" stop-color="white" stop-opacity="0.76"/>
<stop offset="0.6" stop-color="white" stop-opacity="0.36"/>
<stop offset="0.87" stop-color="white" stop-opacity="0.1"/>
<stop offset="1" stop-color="white" stop-opacity="0"/>
</linearGradient>
<linearGradient id="paint21_linear_368_496" x1="1128.39" y1="182.14" x2="721.6" y2="541.63" gradientUnits="userSpaceOnUse">
<stop stop-color="white"/>
<stop offset="0.22" stop-color="white" stop-opacity="0.76"/>
<stop offset="0.6" stop-color="white" stop-opacity="0.36"/>
<stop offset="0.87" stop-color="white" stop-opacity="0.1"/>
<stop offset="1" stop-color="white" stop-opacity="0"/>
</linearGradient>
<linearGradient id="paint22_linear_368_496" x1="1172.53" y1="232.09" x2="765.731" y2="591.58" gradientUnits="userSpaceOnUse">
<stop stop-color="white"/>
<stop offset="0.22" stop-color="white" stop-opacity="0.76"/>
<stop offset="0.6" stop-color="white" stop-opacity="0.36"/>
<stop offset="0.87" stop-color="white" stop-opacity="0.1"/>
<stop offset="1" stop-color="white" stop-opacity="0"/>
</linearGradient>
<linearGradient id="paint23_linear_368_496" x1="720.851" y1="-279.02" x2="314.061" y2="80.47" gradientUnits="userSpaceOnUse">
<stop stop-color="white"/>
<stop offset="0.22" stop-color="white" stop-opacity="0.76"/>
<stop offset="0.6" stop-color="white" stop-opacity="0.36"/>
<stop offset="0.87" stop-color="white" stop-opacity="0.1"/>
<stop offset="1" stop-color="white" stop-opacity="0"/>
</linearGradient>
<linearGradient id="paint24_linear_368_496" x1="889.341" y1="-88.36" x2="482.551" y2="271.13" gradientUnits="userSpaceOnUse">
<stop stop-color="white"/>
<stop offset="0.22" stop-color="white" stop-opacity="0.76"/>
<stop offset="0.6" stop-color="white" stop-opacity="0.36"/>
<stop offset="0.87" stop-color="white" stop-opacity="0.1"/>
<stop offset="1" stop-color="white" stop-opacity="0"/>
</linearGradient>
<linearGradient id="paint25_linear_368_496" x1="845.202" y1="-138.31" x2="438.412" y2="221.19" gradientUnits="userSpaceOnUse">
<stop stop-color="white"/>
<stop offset="0.22" stop-color="white" stop-opacity="0.76"/>
<stop offset="0.6" stop-color="white" stop-opacity="0.36"/>
<stop offset="0.87" stop-color="white" stop-opacity="0.1"/>
<stop offset="1" stop-color="white" stop-opacity="0"/>
</linearGradient>
<linearGradient id="paint26_linear_368_496" x1="864.341" y1="-116.65" x2="457.541" y2="242.84" gradientUnits="userSpaceOnUse">
<stop stop-color="white"/>
<stop offset="0.22" stop-color="white" stop-opacity="0.76"/>
<stop offset="0.6" stop-color="white" stop-opacity="0.36"/>
<stop offset="0.87" stop-color="white" stop-opacity="0.1"/>
<stop offset="1" stop-color="white" stop-opacity="0"/>
</linearGradient>
<linearGradient id="paint27_linear_368_496" x1="839.341" y1="-144.94" x2="432.541" y2="214.55" gradientUnits="userSpaceOnUse">
<stop stop-color="white"/>
<stop offset="0.22" stop-color="white" stop-opacity="0.76"/>
<stop offset="0.6" stop-color="white" stop-opacity="0.36"/>
<stop offset="0.87" stop-color="white" stop-opacity="0.1"/>
<stop offset="1" stop-color="white" stop-opacity="0"/>
</linearGradient>
<linearGradient id="paint28_linear_368_496" x1="845.84" y1="-137.59" x2="439.05" y2="221.91" gradientUnits="userSpaceOnUse">
<stop stop-color="white"/>
<stop offset="0.22" stop-color="white" stop-opacity="0.76"/>
<stop offset="0.6" stop-color="white" stop-opacity="0.36"/>
<stop offset="0.87" stop-color="white" stop-opacity="0.1"/>
<stop offset="1" stop-color="white" stop-opacity="0"/>
</linearGradient>
<linearGradient id="paint29_linear_368_496" x1="801.871" y1="-187.34" x2="395.081" y2="172.15" gradientUnits="userSpaceOnUse">
<stop stop-color="white"/>
<stop offset="0.22" stop-color="white" stop-opacity="0.76"/>
<stop offset="0.6" stop-color="white" stop-opacity="0.36"/>
<stop offset="0.87" stop-color="white" stop-opacity="0.1"/>
<stop offset="1" stop-color="white" stop-opacity="0"/>
</linearGradient>
<linearGradient id="paint30_linear_368_496" x1="820.712" y1="-166.02" x2="413.912" y2="193.47" gradientUnits="userSpaceOnUse">
<stop stop-color="white"/>
<stop offset="0.22" stop-color="white" stop-opacity="0.76"/>
<stop offset="0.6" stop-color="white" stop-opacity="0.36"/>
<stop offset="0.87" stop-color="white" stop-opacity="0.1"/>
<stop offset="1" stop-color="white" stop-opacity="0"/>
</linearGradient>
<linearGradient id="paint31_linear_368_496" x1="766.11" y1="-227.8" x2="359.32" y2="131.69" gradientUnits="userSpaceOnUse">
<stop stop-color="white"/>
<stop offset="0.22" stop-color="white" stop-opacity="0.76"/>
<stop offset="0.6" stop-color="white" stop-opacity="0.36"/>
<stop offset="0.87" stop-color="white" stop-opacity="0.1"/>
<stop offset="1" stop-color="white" stop-opacity="0"/>
</linearGradient>
<linearGradient id="paint32_linear_368_496" x1="738.36" y1="-259.2" x2="331.57" y2="100.29" gradientUnits="userSpaceOnUse">
<stop stop-color="white"/>
<stop offset="0.22" stop-color="white" stop-opacity="0.76"/>
<stop offset="0.6" stop-color="white" stop-opacity="0.36"/>
<stop offset="0.87" stop-color="white" stop-opacity="0.1"/>
<stop offset="1" stop-color="white" stop-opacity="0"/>
</linearGradient>
<linearGradient id="paint33_linear_368_496" x1="737.862" y1="-259.77" x2="331.072" y2="99.7205" gradientUnits="userSpaceOnUse">
<stop stop-color="white"/>
<stop offset="0.22" stop-color="white" stop-opacity="0.76"/>
<stop offset="0.6" stop-color="white" stop-opacity="0.36"/>
<stop offset="0.87" stop-color="white" stop-opacity="0.1"/>
<stop offset="1" stop-color="white" stop-opacity="0"/>
</linearGradient>
<linearGradient id="paint34_linear_368_496" x1="775.302" y1="-217.41" x2="368.502" y2="142.081" gradientUnits="userSpaceOnUse">
<stop stop-color="white"/>
<stop offset="0.22" stop-color="white" stop-opacity="0.76"/>
<stop offset="0.6" stop-color="white" stop-opacity="0.36"/>
<stop offset="0.87" stop-color="white" stop-opacity="0.1"/>
<stop offset="1" stop-color="white" stop-opacity="0"/>
</linearGradient>
<linearGradient id="paint35_linear_368_496" x1="788.37" y1="-202.62" x2="381.58" y2="156.87" gradientUnits="userSpaceOnUse">
<stop stop-color="white"/>
<stop offset="0.22" stop-color="white" stop-opacity="0.76"/>
<stop offset="0.6" stop-color="white" stop-opacity="0.36"/>
<stop offset="0.87" stop-color="white" stop-opacity="0.1"/>
<stop offset="1" stop-color="white" stop-opacity="0"/>
</linearGradient>
<linearGradient id="paint36_linear_368_496" x1="794.431" y1="-195.76" x2="387.641" y2="163.73" gradientUnits="userSpaceOnUse">
<stop stop-color="white"/>
<stop offset="0.22" stop-color="white" stop-opacity="0.76"/>
<stop offset="0.6" stop-color="white" stop-opacity="0.36"/>
<stop offset="0.87" stop-color="white" stop-opacity="0.1"/>
<stop offset="1" stop-color="white" stop-opacity="0"/>
</linearGradient>
<linearGradient id="paint37_linear_368_496" x1="756.931" y1="-238.2" x2="350.131" y2="121.3" gradientUnits="userSpaceOnUse">
<stop stop-color="white"/>
<stop offset="0.22" stop-color="white" stop-opacity="0.76"/>
<stop offset="0.6" stop-color="white" stop-opacity="0.36"/>
<stop offset="0.87" stop-color="white" stop-opacity="0.1"/>
<stop offset="1" stop-color="white" stop-opacity="0"/>
</linearGradient>
<linearGradient id="paint38_linear_368_496" x1="654.62" y1="-353.97" x2="247.83" y2="5.52999" gradientUnits="userSpaceOnUse">
<stop stop-color="white"/>
<stop offset="0.22" stop-color="white" stop-opacity="0.76"/>
<stop offset="0.6" stop-color="white" stop-opacity="0.36"/>
<stop offset="0.87" stop-color="white" stop-opacity="0.1"/>
<stop offset="1" stop-color="white" stop-opacity="0"/>
</linearGradient>
<linearGradient id="paint39_linear_368_496" x1="635.491" y1="-375.62" x2="228.691" y2="-16.13" gradientUnits="userSpaceOnUse">
<stop stop-color="white"/>
<stop offset="0.22" stop-color="white" stop-opacity="0.76"/>
<stop offset="0.6" stop-color="white" stop-opacity="0.36"/>
<stop offset="0.87" stop-color="white" stop-opacity="0.1"/>
<stop offset="1" stop-color="white" stop-opacity="0"/>
</linearGradient>
<linearGradient id="paint40_linear_368_496" x1="660.491" y1="-347.33" x2="253.691" y2="12.1601" gradientUnits="userSpaceOnUse">
<stop stop-color="white"/>
<stop offset="0.22" stop-color="white" stop-opacity="0.76"/>
<stop offset="0.6" stop-color="white" stop-opacity="0.36"/>
<stop offset="0.87" stop-color="white" stop-opacity="0.1"/>
<stop offset="1" stop-color="white" stop-opacity="0"/>
</linearGradient>
<linearGradient id="paint41_linear_368_496" x1="597.212" y1="-418.93" x2="190.422" y2="-59.43" gradientUnits="userSpaceOnUse">
<stop stop-color="white"/>
<stop offset="0.22" stop-color="white" stop-opacity="0.76"/>
<stop offset="0.6" stop-color="white" stop-opacity="0.36"/>
<stop offset="0.87" stop-color="white" stop-opacity="0.1"/>
<stop offset="1" stop-color="white" stop-opacity="0"/>
</linearGradient>
<linearGradient id="paint42_linear_368_496" x1="565.581" y1="-454.72" x2="158.791" y2="-95.23" gradientUnits="userSpaceOnUse">
<stop stop-color="white"/>
<stop offset="0.22" stop-color="white" stop-opacity="0.76"/>
<stop offset="0.6" stop-color="white" stop-opacity="0.36"/>
<stop offset="0.87" stop-color="white" stop-opacity="0.1"/>
<stop offset="1" stop-color="white" stop-opacity="0"/>
</linearGradient>
<linearGradient id="paint43_linear_368_496" x1="574.901" y1="-444.18" x2="168.101" y2="-84.69" gradientUnits="userSpaceOnUse">
<stop stop-color="white"/>
<stop offset="0.22" stop-color="white" stop-opacity="0.76"/>
<stop offset="0.6" stop-color="white" stop-opacity="0.36"/>
<stop offset="0.87" stop-color="white" stop-opacity="0.1"/>
<stop offset="1" stop-color="white" stop-opacity="0"/>
</linearGradient>
<linearGradient id="paint44_linear_368_496" x1="603.082" y1="-412.29" x2="196.292" y2="-52.7898" gradientUnits="userSpaceOnUse">
<stop stop-color="white"/>
<stop offset="0.22" stop-color="white" stop-opacity="0.76"/>
<stop offset="0.6" stop-color="white" stop-opacity="0.36"/>
<stop offset="0.87" stop-color="white" stop-opacity="0.1"/>
<stop offset="1" stop-color="white" stop-opacity="0"/>
</linearGradient>
<linearGradient id="paint45_linear_368_496" x1="641.191" y1="-369.16" x2="234.401" y2="-9.66996" gradientUnits="userSpaceOnUse">
<stop stop-color="white"/>
<stop offset="0.22" stop-color="white" stop-opacity="0.76"/>
<stop offset="0.6" stop-color="white" stop-opacity="0.36"/>
<stop offset="0.87" stop-color="white" stop-opacity="0.1"/>
<stop offset="1" stop-color="white" stop-opacity="0"/>
</linearGradient>
<linearGradient id="paint46_linear_368_496" x1="685.992" y1="-318.47" x2="279.202" y2="41.0301" gradientUnits="userSpaceOnUse">
<stop stop-color="white"/>
<stop offset="0.22" stop-color="white" stop-opacity="0.76"/>
<stop offset="0.6" stop-color="white" stop-opacity="0.36"/>
<stop offset="0.87" stop-color="white" stop-opacity="0.1"/>
<stop offset="1" stop-color="white" stop-opacity="0"/>
</linearGradient>
<linearGradient id="paint47_linear_368_496" x1="692.12" y1="-311.53" x2="285.33" y2="47.96" gradientUnits="userSpaceOnUse">
<stop stop-color="white"/>
<stop offset="0.22" stop-color="white" stop-opacity="0.76"/>
<stop offset="0.6" stop-color="white" stop-opacity="0.36"/>
<stop offset="0.87" stop-color="white" stop-opacity="0.1"/>
<stop offset="1" stop-color="white" stop-opacity="0"/>
</linearGradient>
<linearGradient id="paint48_linear_368_496" x1="673.761" y1="-332.31" x2="266.961" y2="27.18" gradientUnits="userSpaceOnUse">
<stop stop-color="white"/>
<stop offset="0.22" stop-color="white" stop-opacity="0.76"/>
<stop offset="0.6" stop-color="white" stop-opacity="0.36"/>
<stop offset="0.87" stop-color="white" stop-opacity="0.1"/>
<stop offset="1" stop-color="white" stop-opacity="0"/>
</linearGradient>
<linearGradient id="paint49_linear_368_496" x1="667.89" y1="-338.95" x2="261.1" y2="20.54" gradientUnits="userSpaceOnUse">
<stop stop-color="white"/>
<stop offset="0.22" stop-color="white" stop-opacity="0.76"/>
<stop offset="0.6" stop-color="white" stop-opacity="0.36"/>
<stop offset="0.87" stop-color="white" stop-opacity="0.1"/>
<stop offset="1" stop-color="white" stop-opacity="0"/>
</linearGradient>
<linearGradient id="paint50_linear_368_496" x1="699.531" y1="-303.15" x2="292.731" y2="56.3399" gradientUnits="userSpaceOnUse">
<stop stop-color="white"/>
<stop offset="0.22" stop-color="white" stop-opacity="0.76"/>
<stop offset="0.6" stop-color="white" stop-opacity="0.36"/>
<stop offset="0.87" stop-color="white" stop-opacity="0.1"/>
<stop offset="1" stop-color="white" stop-opacity="0"/>
</linearGradient>
<linearGradient id="paint51_linear_368_496" x1="742.74" y1="-254.25" x2="335.95" y2="105.24" gradientUnits="userSpaceOnUse">
<stop stop-color="white"/>
<stop offset="0.22" stop-color="white" stop-opacity="0.76"/>
<stop offset="0.6" stop-color="white" stop-opacity="0.36"/>
<stop offset="0.87" stop-color="white" stop-opacity="0.1"/>
<stop offset="1" stop-color="white" stop-opacity="0"/>
</linearGradient>
<linearGradient id="paint52_linear_368_496" x1="724.531" y1="-274.86" x2="317.731" y2="84.63" gradientUnits="userSpaceOnUse">
<stop stop-color="white"/>
<stop offset="0.22" stop-color="white" stop-opacity="0.76"/>
<stop offset="0.6" stop-color="white" stop-opacity="0.36"/>
<stop offset="0.87" stop-color="white" stop-opacity="0.1"/>
<stop offset="1" stop-color="white" stop-opacity="0"/>
</linearGradient>
<linearGradient id="paint53_linear_368_496" x1="718.661" y1="-281.5" x2="311.871" y2="77.99" gradientUnits="userSpaceOnUse">
<stop stop-color="white"/>
<stop offset="0.22" stop-color="white" stop-opacity="0.76"/>
<stop offset="0.6" stop-color="white" stop-opacity="0.36"/>
<stop offset="0.87" stop-color="white" stop-opacity="0.1"/>
<stop offset="1" stop-color="white" stop-opacity="0"/>
</linearGradient>
<linearGradient id="paint54_linear_368_496" x1="781.161" y1="-210.77" x2="374.371" y2="148.72" gradientUnits="userSpaceOnUse">
<stop stop-color="white"/>
<stop offset="0.22" stop-color="white" stop-opacity="0.76"/>
<stop offset="0.6" stop-color="white" stop-opacity="0.36"/>
<stop offset="0.87" stop-color="white" stop-opacity="0.1"/>
<stop offset="1" stop-color="white" stop-opacity="0"/>
</linearGradient>
<linearGradient id="paint55_linear_368_496" x1="816.12" y1="-171.22" x2="409.32" y2="188.27" gradientUnits="userSpaceOnUse">
<stop stop-color="white"/>
<stop offset="0.22" stop-color="white" stop-opacity="0.76"/>
<stop offset="0.6" stop-color="white" stop-opacity="0.36"/>
<stop offset="0.87" stop-color="white" stop-opacity="0.1"/>
<stop offset="1" stop-color="white" stop-opacity="0"/>
</linearGradient>
<linearGradient id="paint56_linear_368_496" x1="854.392" y1="-127.91" x2="447.592" y2="231.58" gradientUnits="userSpaceOnUse">
<stop stop-color="white"/>
<stop offset="0.22" stop-color="white" stop-opacity="0.76"/>
<stop offset="0.6" stop-color="white" stop-opacity="0.36"/>
<stop offset="0.87" stop-color="white" stop-opacity="0.1"/>
<stop offset="1" stop-color="white" stop-opacity="0"/>
</linearGradient>
</defs>
</svg>
