<svg width="44" height="44" viewBox="0 0 44 44" fill="none" xmlns="http://www.w3.org/2000/svg">
<rect opacity="0.2" width="44" height="44" rx="5" fill="#FECA47"/>
<path d="M26.1604 22L23.3004 25.9L22.0004 24.08L20.7004 25.9L17.8404 22C12.9004 23.3 12.9004 25.9 12.9004 30.97C12.9004 30.97 16.8004 32.4 21.2204 32.4H22.7804C27.2004 32.27 31.1004 30.97 31.1004 30.97C31.1004 25.9 31.1004 23.3 26.1604 22ZM22.0004 22.91L19.9204 22L22.0004 24.08L24.0804 22L22.0004 22.91ZM22.0004 11.73C19.5304 11.73 18.1004 14.07 18.4904 16.67C18.8804 19.27 20.1804 21.09 22.0004 21.09C23.8204 21.09 25.1204 19.27 25.5104 16.67C25.9004 13.94 24.4704 11.73 22.0004 11.73Z" fill="#FECA47"/>
</svg>
