<svg width="18" height="18" viewBox="0 0 18 18" fill="none" xmlns="http://www.w3.org/2000/svg">
<path d="M7.83268 10.5L6.04102 8.70832C5.88824 8.55554 5.69379 8.47916 5.45768 8.47916C5.22157 8.47916 5.02713 8.55554 4.87435 8.70832C4.72157 8.8611 4.64518 9.05555 4.64518 9.29166C4.64518 9.52777 4.72157 9.72221 4.87435 9.87499L7.24935 12.25C7.41602 12.4167 7.61046 12.5 7.83268 12.5C8.0549 12.5 8.24935 12.4167 8.41602 12.25L13.1243 7.54166C13.2771 7.38888 13.3535 7.19443 13.3535 6.95832C13.3535 6.72221 13.2771 6.52777 13.1243 6.37499C12.9716 6.22221 12.7771 6.14582 12.541 6.14582C12.3049 6.14582 12.1105 6.22221 11.9577 6.37499L7.83268 10.5ZM8.99935 17.3333C7.84657 17.3333 6.76324 17.1144 5.74935 16.6767C4.73546 16.2389 3.85352 15.6453 3.10352 14.8958C2.35352 14.1458 1.7599 13.2639 1.32268 12.25C0.88546 11.2361 0.666571 10.1528 0.666016 8.99999C0.666016 7.84721 0.884905 6.76388 1.32268 5.74999C1.76046 4.7361 2.35407 3.85416 3.10352 3.10416C3.85352 2.35416 4.73546 1.76055 5.74935 1.32332C6.76324 0.886101 7.84657 0.667212 8.99935 0.666656C10.1521 0.666656 11.2355 0.885545 12.2493 1.32332C13.2632 1.7611 14.1452 2.35471 14.8952 3.10416C15.6452 3.85416 16.2391 4.7361 16.6768 5.74999C17.1146 6.76388 17.3332 7.84721 17.3327 8.99999C17.3327 10.1528 17.1138 11.2361 16.676 12.25C16.2382 13.2639 15.6446 14.1458 14.8952 14.8958C14.1452 15.6458 13.2632 16.2397 12.2493 16.6775C11.2355 17.1153 10.1521 17.3339 8.99935 17.3333Z" fill="#5E5E5E"/>
</svg>
