<svg width="26" height="26" viewBox="0 0 26 26" fill="none" xmlns="http://www.w3.org/2000/svg">
<path d="M1.09101e-06 4.125C1.09101e-06 3.03098 0.434598 1.98177 1.20819 1.20818C1.98177 0.434597 3.03098 0 4.125 0H16.8705C17.9645 0 19.0137 0.434597 19.7873 1.20818C20.5609 1.98177 20.9955 3.03098 20.9955 4.125V10.8495C20.508 11.0595 20.0505 11.3625 19.653 11.7615L18.7455 12.669V6H2.25V16.872C2.25 17.907 3.09 18.747 4.125 18.747H12.666L12.4095 19.005C11.8528 19.5617 11.4417 20.2468 11.2125 21H4.125C3.58305 21 3.0464 20.8932 2.54574 20.6857C2.04507 20.4782 1.59021 20.1741 1.20712 19.7908C0.824044 19.4074 0.520261 18.9523 0.313136 18.4515C0.106012 17.9507 -0.000393058 17.414 1.09101e-06 16.872V4.125ZM9.531 8.781C9.67183 8.64037 9.75103 8.44955 9.75117 8.25053C9.75131 8.05151 9.67238 7.86058 9.53175 7.71975C9.39112 7.57892 9.2003 7.49972 9.00128 7.49958C8.80226 7.49944 8.61133 7.57837 8.4705 7.719L4.7205 11.469C4.65066 11.5387 4.59524 11.6214 4.55743 11.7126C4.51962 11.8037 4.50016 11.9014 4.50016 12C4.50016 12.0987 4.51962 12.1963 4.55743 12.2875C4.59524 12.3786 4.65066 12.4613 4.7205 12.531L8.4705 16.281C8.61133 16.4216 8.80226 16.5006 9.00128 16.5004C9.2003 16.5003 9.39112 16.4211 9.53175 16.2803C9.67238 16.1394 9.75131 15.9485 9.75117 15.7495C9.75103 15.5504 9.67183 15.3596 9.531 15.219L6.312 12L9.531 8.781ZM12.219 16.281C12.1492 16.2113 12.0937 16.1286 12.0559 16.0375C12.0181 15.9463 11.9987 15.8487 11.9987 15.75C11.9987 15.6514 12.0181 15.5537 12.0559 15.4626C12.0937 15.3714 12.1492 15.2887 12.219 15.219L15.4395 12L12.219 8.781C12.0782 8.64017 11.9991 8.44916 11.9991 8.25C11.9991 8.05084 12.0782 7.85983 12.219 7.719C12.3598 7.57817 12.5508 7.49905 12.75 7.49905C12.9492 7.49905 13.1402 7.57817 13.281 7.719L17.031 11.469C17.1716 11.6096 17.2506 11.8004 17.2506 11.9993C17.2506 12.1981 17.1716 12.3889 17.031 12.5295L13.281 16.2795C13.2113 16.3493 13.1286 16.4048 13.0375 16.4426C12.9463 16.4804 12.8487 16.4998 12.75 16.4998C12.6514 16.4998 12.5537 16.4804 12.4626 16.4426C12.3714 16.4048 12.2887 16.3493 12.219 16.2795V16.281ZM20.7135 12.822L13.4685 20.067C13.0468 20.4892 12.7477 21.018 12.603 21.597L12.0405 23.844C11.985 24.0675 11.9883 24.3015 12.05 24.5234C12.1117 24.7452 12.2297 24.9473 12.3926 25.11C12.5555 25.2728 12.7577 25.3906 12.9796 25.4521C13.2015 25.5136 13.4356 25.5167 13.659 25.461L15.906 24.9C16.4852 24.7551 17.0141 24.4554 17.436 24.033L24.681 16.788C25.2002 16.2605 25.4899 15.5491 25.4869 14.809C25.4839 14.0688 25.1884 13.3598 24.6649 12.8366C24.1415 12.3133 23.4324 12.0181 22.6922 12.0154C21.9521 12.0127 21.2408 12.3026 20.7135 12.822Z" fill="#FE6F6F"/>
</svg>
