<svg width="26" height="24" viewBox="0 0 26 24" fill="none" xmlns="http://www.w3.org/2000/svg">
<path d="M25.0138 3.6681L13.4578 0.0699863C13.1618 -0.0233288 12.8413 -0.0233288 12.5453 0.0699863L0.98927 3.6681C0.713531 3.7534 0.47173 3.91438 0.295428 4.13001C0.119127 4.34564 0.0165151 4.60591 0.000987798 4.87684C-0.000329266 4.90044 -0.000329266 4.92408 0.000987798 4.94768V13.943C0.000987798 14.3008 0.153176 14.644 0.424074 14.8971C0.694971 15.1501 1.06239 15.2923 1.44549 15.2923C1.8286 15.2923 2.19602 15.1501 2.46691 14.8971C2.73781 14.644 2.89 14.3008 2.89 13.943V6.81982L5.7441 7.70811C4.85833 9.29183 4.5951 11.1155 5.00024 12.8618C5.40538 14.6081 6.45322 16.1665 7.96142 17.2656C5.98777 18.1747 4.31744 19.5701 3.13075 21.3011C3.02388 21.4495 2.94966 21.6162 2.91238 21.7916C2.8751 21.967 2.87552 22.1475 2.91361 22.3228C2.95169 22.498 3.02669 22.6644 3.13424 22.8124C3.24179 22.9603 3.37975 23.0868 3.54009 23.1845C3.70043 23.2822 3.87996 23.3491 4.06825 23.3814C4.25653 23.4137 4.44981 23.4107 4.63685 23.3727C4.8239 23.3346 5.00097 23.2622 5.15778 23.1596C5.3146 23.057 5.44802 22.9264 5.5503 22.7752C7.26805 20.306 9.99215 18.8904 13.0015 18.8904C16.0109 18.8904 18.735 20.306 20.4588 22.7752C20.5611 22.9264 20.6945 23.057 20.8513 23.1596C21.0081 23.2622 21.1852 23.3346 21.3722 23.3727C21.5593 23.4107 21.7526 23.4137 21.9408 23.3814C22.1291 23.3491 22.3087 23.2822 22.469 23.1845C22.6293 23.0868 22.7673 22.9603 22.8748 22.8124C22.9824 22.6644 23.0574 22.498 23.0955 22.3228C23.1336 22.1475 23.134 21.967 23.0967 21.7916C23.0594 21.6162 22.9852 21.4495 22.8783 21.3011C21.6905 19.5681 20.018 18.1714 18.0417 17.2622C19.5498 16.1631 20.5977 14.6048 21.0028 12.8585C21.408 11.1122 21.1447 9.28846 20.259 7.70473L25.0138 6.22388C25.3011 6.13411 25.5508 5.96227 25.7278 5.73265C25.9048 5.50302 26 5.22724 26 4.94431C26 4.66137 25.9048 4.38559 25.7278 4.15596C25.5508 3.92634 25.3011 3.7545 25.0138 3.66473V3.6681ZM13.0015 2.76857L19.9893 4.94768L13.0015 7.12341L6.01976 4.94768L13.0015 2.76857ZM18.2981 11.2444C18.2982 12.0128 18.1067 12.7708 17.7388 13.4581C17.3708 14.1454 16.8365 14.7432 16.1782 15.2041C15.5199 15.665 14.7557 15.9763 13.9463 16.1134C13.1368 16.2504 12.3042 16.2095 11.5146 15.9938C10.725 15.778 10.0001 15.3934 9.39724 14.8705C8.79442 14.3476 8.3303 13.7006 8.04168 12.981C7.75305 12.2614 7.64785 11.4889 7.73442 10.7247C7.82099 9.9605 8.09695 9.22565 8.54042 8.5784L12.5453 9.82537C12.8413 9.91835 13.1618 9.91835 13.4578 9.82537L17.4626 8.5784C18.0089 9.3739 18.2989 10.2993 18.2981 11.2444Z" fill="#2E62CC"/>
</svg>
