<svg width="12" height="12" viewBox="0 0 12 12" fill="none" xmlns="http://www.w3.org/2000/svg">
<path d="M8.14286 0H3C2.20461 0.000850835 1.44204 0.317195 0.879619 0.879619C0.317195 1.44204 0.000850835 2.20461 0 3V8.14286C0.000850835 8.93824 0.317195 9.70081 0.879619 10.2632C1.44204 10.8257 2.20461 11.142 3 11.1429H8.14286C8.93824 11.142 9.70081 10.8257 10.2632 10.2632C10.8257 9.70081 11.142 8.93824 11.1429 8.14286V3C11.142 2.20461 10.8257 1.44204 10.2632 0.879619C9.70081 0.317195 8.93824 0.000850835 8.14286 0ZM5.57143 8.14286C5.06285 8.14286 4.56569 7.99204 4.14282 7.70949C3.71995 7.42694 3.39036 7.02534 3.19574 6.55547C3.00111 6.0856 2.95019 5.56858 3.04941 5.06977C3.14863 4.57096 3.39353 4.11277 3.75315 3.75315C4.11277 3.39353 4.57096 3.14863 5.06977 3.04941C5.56858 2.95019 6.0856 3.00111 6.55547 3.19574C7.02534 3.39036 7.42694 3.71995 7.70949 4.14282C7.99204 4.56569 8.14286 5.06285 8.14286 5.57143C8.14215 6.2532 7.871 6.90684 7.38892 7.38892C6.90684 7.871 6.2532 8.14215 5.57143 8.14286ZM8.78571 3C8.65857 3 8.53428 2.9623 8.42856 2.89166C8.32284 2.82102 8.24045 2.72062 8.19179 2.60315C8.14314 2.48569 8.1304 2.35643 8.15521 2.23173C8.18001 2.10703 8.24124 1.99248 8.33115 1.90257C8.42105 1.81267 8.5356 1.75144 8.6603 1.72664C8.785 1.70183 8.91426 1.71456 9.03172 1.76322C9.14919 1.81188 9.24959 1.89427 9.32023 1.99999C9.39087 2.10571 9.42857 2.23 9.42857 2.35714C9.42857 2.52764 9.36084 2.69115 9.24028 2.81171C9.11972 2.93227 8.95621 3 8.78571 3ZM7.28571 5.57143C7.28571 5.91048 7.18517 6.24192 6.9968 6.52383C6.80844 6.80575 6.5407 7.02547 6.22746 7.15522C5.91421 7.28497 5.56953 7.31892 5.23699 7.25277C4.90445 7.18663 4.59899 7.02336 4.35925 6.78361C4.1195 6.54386 3.95623 6.23841 3.89008 5.90587C3.82394 5.57333 3.85788 5.22864 3.98763 4.9154C4.11738 4.60215 4.33711 4.33442 4.61902 4.14605C4.90094 3.95768 5.23237 3.85714 5.57143 3.85714C6.02609 3.85714 6.46212 4.03775 6.78361 4.35925C7.1051 4.68074 7.28571 5.11677 7.28571 5.57143Z" fill="white"/>
</svg>
