<svg width="44" height="44" viewBox="0 0 44 44" fill="none" xmlns="http://www.w3.org/2000/svg">
<rect opacity="0.2" width="44" height="44" rx="5" fill="#39B590"/>
<g clip-path="url(#clip0_176_149)">
<path d="M34.6898 31.2182C34.6898 31.7401 34.5076 32.1833 34.1432 32.5477L32.5625 34.1432C32.1784 34.5076 31.7303 34.6898 31.2182 34.6898C30.6962 34.6898 30.253 34.5076 29.8886 34.1432L24.5261 28.7659C24.1519 28.4113 23.9648 27.9682 23.9648 27.4363C23.9648 26.9144 24.1765 26.4416 24.6 26.0182L20.8182 22.2363L18.9568 24.0977C18.8189 24.2356 18.6515 24.3045 18.4545 24.3045C18.2576 24.3045 18.0901 24.2356 17.9523 24.0977C17.972 24.1174 18.0335 24.1765 18.1369 24.275C18.2403 24.3735 18.3019 24.4375 18.3216 24.467C18.3413 24.4966 18.3905 24.5532 18.4693 24.6369C18.5481 24.7206 18.5973 24.7871 18.617 24.8363C18.6367 24.8856 18.6663 24.9521 18.7057 25.0358C18.7451 25.1195 18.7721 25.2007 18.7869 25.2795C18.8017 25.3583 18.8091 25.447 18.8091 25.5454C18.8091 25.9197 18.6712 26.2545 18.3954 26.55C18.3659 26.5795 18.2846 26.6682 18.1517 26.8159C18.0187 26.9636 17.9252 27.0646 17.871 27.1187C17.8168 27.1729 17.7257 27.2541 17.5977 27.3625C17.4697 27.4708 17.3613 27.5471 17.2727 27.5915C17.1841 27.6358 17.0757 27.6801 16.9477 27.7244C16.8197 27.7687 16.6916 27.7909 16.5636 27.7909C16.1697 27.7909 15.8348 27.653 15.5591 27.3773L9.5318 21.35C9.25604 21.0742 9.11816 20.7394 9.11816 20.3454C9.11816 20.2174 9.14032 20.0894 9.18464 19.9613C9.22896 19.8333 9.27328 19.725 9.3176 19.6363C9.36191 19.5477 9.43824 19.4394 9.54657 19.3113C9.65491 19.1833 9.73616 19.0922 9.79032 19.0381C9.84449 18.9839 9.94544 18.8903 10.0932 18.7574C10.2409 18.6244 10.3295 18.5432 10.3591 18.5136C10.6545 18.2379 10.9894 18.1 11.3636 18.1C11.4621 18.1 11.5507 18.1074 11.6295 18.1221C11.7083 18.1369 11.7896 18.164 11.8733 18.2034C11.957 18.2428 12.0235 18.2723 12.0727 18.292C12.122 18.3117 12.1884 18.361 12.2721 18.4398C12.3559 18.5185 12.4125 18.5678 12.442 18.5875C12.4716 18.6072 12.5356 18.6687 12.6341 18.7721C12.7326 18.8756 12.7916 18.9371 12.8113 18.9568C12.6735 18.8189 12.6045 18.6515 12.6045 18.4545C12.6045 18.2576 12.6735 18.0901 12.8113 17.9523L17.9523 12.8113C18.0901 12.6735 18.2576 12.6045 18.4545 12.6045C18.6515 12.6045 18.8189 12.6735 18.9568 12.8113C18.9371 12.7916 18.8756 12.7326 18.7721 12.6341C18.6687 12.5356 18.6072 12.4716 18.5875 12.442C18.5678 12.4125 18.5185 12.3559 18.4398 12.2721C18.361 12.1884 18.3117 12.122 18.292 12.0727C18.2723 12.0235 18.2428 11.957 18.2034 11.8733C18.164 11.7896 18.1369 11.7083 18.1221 11.6295C18.1074 11.5507 18.1 11.4621 18.1 11.3636C18.1 10.9894 18.2379 10.6545 18.5136 10.3591C18.5432 10.3295 18.6244 10.2409 18.7574 10.0932C18.8903 9.94544 18.9839 9.84449 19.0381 9.79032C19.0922 9.73616 19.1833 9.65491 19.3113 9.54657C19.4394 9.43824 19.5477 9.36191 19.6363 9.3176C19.725 9.27328 19.8333 9.22896 19.9613 9.18464C20.0894 9.14032 20.2174 9.11816 20.3454 9.11816C20.7394 9.11816 21.0742 9.25604 21.35 9.5318L27.3773 15.5591C27.653 15.8348 27.7909 16.1697 27.7909 16.5636C27.7909 16.6916 27.7687 16.8197 27.7244 16.9477C27.6801 17.0757 27.6358 17.1841 27.5915 17.2727C27.5471 17.3613 27.4708 17.4697 27.3625 17.5977C27.2541 17.7257 27.1729 17.8168 27.1187 17.871C27.0646 17.9252 26.9636 18.0187 26.8159 18.1517C26.6682 18.2846 26.5795 18.3659 26.55 18.3954C26.2545 18.6712 25.9197 18.8091 25.5454 18.8091C25.447 18.8091 25.3583 18.8017 25.2795 18.7869C25.2007 18.7721 25.1195 18.7451 25.0358 18.7057C24.9521 18.6663 24.8856 18.6367 24.8363 18.617C24.7871 18.5973 24.7206 18.5481 24.6369 18.4693C24.5532 18.3905 24.4966 18.3413 24.467 18.3216C24.4375 18.3019 24.3735 18.2403 24.275 18.1369C24.1765 18.0335 24.1174 17.972 24.0977 17.9523C24.2356 18.0901 24.3045 18.2576 24.3045 18.4545C24.3045 18.6515 24.2356 18.8189 24.0977 18.9568L22.2363 20.8182L26.0182 24.6C26.4416 24.1765 26.9144 23.9648 27.4363 23.9648C27.9485 23.9648 28.3966 24.147 28.7807 24.5113L34.1432 29.8738C34.5076 30.2579 34.6898 30.706 34.6898 31.2182Z" fill="#39B590"/>
</g>
<defs>
<clipPath id="clip0_176_149">
<rect width="26" height="26" fill="white" transform="translate(9 9)"/>
</clipPath>
</defs>
</svg>
