<svg width="20" height="20" viewBox="0 0 20 20" fill="none" xmlns="http://www.w3.org/2000/svg">
<path d="M10 0L6.23 2.43802H3V4.50413L0.97 5.83678C0.39 6.19835 0 6.84917 0 7.60331V17.9339C0 18.4819 0.210714 19.0074 0.585786 19.3948C0.960859 19.7823 1.46957 20 2 20H18C19.11 20 20 19.0806 20 17.9339V7.60331C20 6.84917 19.61 6.19835 19.03 5.83678L17 4.50413V2.43802H13.77M5 4.50413H15V9.54545L10 12.7686L5 9.54545M6 5.53719V7.08678H14V5.53719M3 6.96281V8.25413L2 7.60331M17 6.96281L18 7.60331L17 8.25413M6 8.11983V9.66942H14V8.11983H6Z" fill="#2E62CC"/>
</svg>
