<svg width="44" height="44" viewBox="0 0 44 44" fill="none" xmlns="http://www.w3.org/2000/svg">
<rect opacity="0.2" width="44" height="44" rx="5" fill="#FFAA53"/>
<path d="M10.0672 30.4291L17.3728 23.5204L21.3208 27.059L26.146 23.1104L28.834 25.5638M34 14.6851C34 14.2382 33.8104 13.8096 33.4728 13.4935C33.1352 13.1775 32.6774 13 32.2 13H11.8C11.3226 13 10.8648 13.1775 10.5272 13.4935C10.1896 13.8096 10 14.2382 10 14.6851V19.7402H34V14.6851Z" stroke="#FFAA53" stroke-width="2.4" stroke-linecap="round" stroke-linejoin="round"/>
<path d="M34 18.6169V29.289C34 29.7359 33.8104 30.1645 33.4728 30.4805C33.1352 30.7965 32.6774 30.974 32.2 30.974H14.8M19.0672 16.3702H29.8672M14.266 16.3702H15.466M10 18.6169V23.6721" stroke="#FFAA53" stroke-width="2.4" stroke-linecap="round" stroke-linejoin="round"/>
</svg>
