<svg width="28" height="22" viewBox="0 0 28 22" fill="none" xmlns="http://www.w3.org/2000/svg">
<path d="M2.0672 19.4291L9.3728 12.5204L13.3208 16.059L18.146 12.1104L20.834 14.5638M26 3.68506C26 3.23815 25.8104 2.80955 25.4728 2.49354C25.1352 2.17753 24.6774 2 24.2 2H3.8C3.32261 2 2.86477 2.17753 2.52721 2.49354C2.18964 2.80955 2 3.23815 2 3.68506V8.74024H26V3.68506Z" stroke="#FFAA53" stroke-width="2.4" stroke-linecap="round" stroke-linejoin="round"/>
<path d="M26 7.61686V18.2889C26 18.7358 25.8104 19.1644 25.4728 19.4804C25.1352 19.7964 24.6774 19.974 24.2 19.974H6.8M11.0672 5.37012H21.8672M6.266 5.37012H7.466M2 7.61686V12.672" stroke="#FFAA53" stroke-width="2.4" stroke-linecap="round" stroke-linejoin="round"/>
</svg>
