<svg width="19" height="20" viewBox="0 0 19 20" fill="none" xmlns="http://www.w3.org/2000/svg">
<path d="M18.7388 15.0998C18.5716 16.4541 17.9477 17.6972 16.9837 18.597C16.0196 19.4968 14.7813 19.9917 13.5 19.9892C6.05626 19.9892 8.4831e-06 13.5326 8.4831e-06 5.59683C-0.00228837 4.23085 0.461903 2.91068 1.30588 1.8829C2.14986 0.855113 3.31592 0.190004 4.58626 0.0117914C4.9075 -0.0300255 5.2328 0.0400383 5.51362 0.211524C5.79444 0.38301 6.0157 0.64672 6.14438 0.963287L8.12438 5.67579V5.68778C8.2229 5.93011 8.26359 6.19467 8.24281 6.45785C8.22204 6.72103 8.14044 6.97462 8.00532 7.19598C7.98845 7.22297 7.97063 7.24796 7.95188 7.27294L6.00001 9.73964C6.7022 11.2608 8.1947 12.838 9.64032 13.5886L11.9222 11.5187C11.9446 11.4986 11.9681 11.4799 11.9925 11.4627C12.2 11.3152 12.4387 11.2252 12.687 11.2007C12.9353 11.1763 13.1854 11.2182 13.4147 11.3228L13.4269 11.3288L17.8434 13.4387C18.1409 13.5754 18.3889 13.8111 18.5503 14.1105C18.7116 14.4099 18.7778 14.757 18.7388 15.0998Z" fill="#2E62CC"/>
</svg>
