<svg width="15" height="20" viewBox="0 0 15 20" fill="none" xmlns="http://www.w3.org/2000/svg">
<path d="M7.5 0C3.35357 0 0 3.13 0 7C0 12.25 7.5 20 7.5 20C7.5 20 15 12.25 15 7C15 3.13 11.6464 0 7.5 0ZM7.5 9.5C6.7896 9.5 6.10829 9.23661 5.60596 8.76777C5.10363 8.29893 4.82143 7.66304 4.82143 7C4.82143 6.33696 5.10363 5.70107 5.60596 5.23223C6.10829 4.76339 6.7896 4.5 7.5 4.5C8.2104 4.5 8.89171 4.76339 9.39404 5.23223C9.89636 5.70107 10.1786 6.33696 10.1786 7C10.1786 7.66304 9.89636 8.29893 9.39404 8.76777C8.89171 9.23661 8.2104 9.5 7.5 9.5Z" fill="#2E62CC"/>
</svg>
