<svg width="60" height="60" viewBox="0 0 60 60" fill="none" xmlns="http://www.w3.org/2000/svg">
<rect width="59.8182" height="60" rx="10" fill="#EAEFFA"/>
<path d="M42.0138 21.7523L30.4578 18.0716C30.1618 17.9761 29.8413 17.9761 29.5453 18.0716L17.9893 21.7523C17.7135 21.8396 17.4717 22.0042 17.2954 22.2248C17.1191 22.4454 17.0165 22.7116 17.001 22.9888C16.9997 23.0129 16.9997 23.0371 17.001 23.0613V32.263C17.001 32.6291 17.1532 32.9802 17.4241 33.239C17.695 33.4979 18.0624 33.6433 18.4455 33.6433C18.8286 33.6433 19.196 33.4979 19.4669 33.239C19.7378 32.9802 19.89 32.6291 19.89 32.263V24.9764L22.7441 25.8851C21.8583 27.5051 21.5951 29.3707 22.0002 31.1571C22.4054 32.9435 23.4532 34.5376 24.9614 35.6619C22.9878 36.5919 21.3174 38.0193 20.1307 39.7901C20.0239 39.9419 19.9497 40.1124 19.9124 40.2918C19.8751 40.4712 19.8755 40.656 19.9136 40.8352C19.9517 41.0145 20.0267 41.1847 20.1342 41.336C20.2418 41.4874 20.3797 41.6168 20.5401 41.7167C20.7004 41.8166 20.88 41.8851 21.0682 41.9181C21.2565 41.9512 21.4498 41.9482 21.6369 41.9092C21.8239 41.8702 22.001 41.7962 22.1578 41.6912C22.3146 41.5863 22.448 41.4527 22.5503 41.298C24.2681 38.7721 26.9921 37.324 30.0015 37.324C33.0109 37.324 35.735 38.7721 37.4588 41.298C37.5611 41.4527 37.6945 41.5863 37.8513 41.6912C38.0081 41.7962 38.1852 41.8702 38.3722 41.9092C38.5593 41.9482 38.7526 41.9512 38.9408 41.9181C39.1291 41.8851 39.3087 41.8166 39.469 41.7167C39.6293 41.6168 39.7673 41.4874 39.8748 41.336C39.9824 41.1847 40.0574 41.0145 40.0955 40.8352C40.1336 40.656 40.134 40.4712 40.0967 40.2918C40.0594 40.1124 39.9852 39.9419 39.8783 39.7901C38.6905 38.0173 37.018 36.5885 35.0417 35.6585C36.5498 34.5341 37.5977 32.94 38.0028 31.1536C38.408 29.3673 38.1447 27.5017 37.259 25.8816L42.0138 24.3668C42.3011 24.2749 42.5508 24.0991 42.7278 23.8642C42.9048 23.6294 43 23.3472 43 23.0578C43 22.7684 42.9048 22.4863 42.7278 22.2514C42.5508 22.0165 42.3011 21.8407 42.0138 21.7489V21.7523ZM30.0015 20.8321L36.9893 23.0613L30.0015 25.2869L23.0198 23.0613L30.0015 20.8321ZM35.2981 29.5025C35.2982 30.2886 35.1067 31.0639 34.7388 31.767C34.3708 32.4701 33.8365 33.0816 33.1782 33.5531C32.5199 34.0246 31.7557 34.3431 30.9463 34.4833C30.1368 34.6235 29.3042 34.5816 28.5146 34.3609C27.725 34.1402 27.0001 33.7468 26.3972 33.2119C25.7944 32.6769 25.3303 32.0152 25.0417 31.279C24.753 30.5429 24.6479 29.7526 24.7344 28.9709C24.821 28.1892 25.097 27.4374 25.5404 26.7753L29.5453 28.0509C29.8413 28.146 30.1618 28.146 30.4578 28.0509L34.4626 26.7753C35.0089 27.5891 35.2989 28.5357 35.2981 29.5025Z" fill="#2E62CC"/>
</svg>
