<svg width="44" height="44" viewBox="0 0 44 44" fill="none" xmlns="http://www.w3.org/2000/svg">
<rect opacity="0.2" width="44" height="44" rx="5" fill="#FE6F6F"/>
<path d="M10 14.125C10 13.031 10.4346 11.9818 11.2082 11.2082C11.9818 10.4346 13.031 10 14.125 10H26.8705C27.9645 10 29.0137 10.4346 29.7873 11.2082C30.5609 11.9818 30.9955 13.031 30.9955 14.125V20.8495C30.508 21.0595 30.0505 21.3625 29.653 21.7615L28.7455 22.669V16H12.25V26.872C12.25 27.907 13.09 28.747 14.125 28.747H22.666L22.4095 29.005C21.8528 29.5617 21.4417 30.2468 21.2125 31H14.125C13.583 31 13.0464 30.8932 12.5457 30.6857C12.0451 30.4782 11.5902 30.1741 11.2071 29.7908C10.824 29.4074 10.5203 28.9523 10.3131 28.4515C10.106 27.9507 9.99961 27.414 10 26.872V14.125ZM19.531 18.781C19.6718 18.6404 19.751 18.4496 19.7512 18.2505C19.7513 18.0515 19.6724 17.8606 19.5318 17.7198C19.3911 17.5789 19.2003 17.4997 19.0013 17.4996C18.8023 17.4994 18.6113 17.5784 18.4705 17.719L14.7205 21.469C14.6507 21.5387 14.5952 21.6214 14.5574 21.7126C14.5196 21.8037 14.5002 21.9014 14.5002 22C14.5002 22.0987 14.5196 22.1963 14.5574 22.2875C14.5952 22.3786 14.6507 22.4613 14.7205 22.531L18.4705 26.281C18.6113 26.4216 18.8023 26.5006 19.0013 26.5004C19.2003 26.5003 19.3911 26.4211 19.5318 26.2803C19.6724 26.1394 19.7513 25.9485 19.7512 25.7495C19.751 25.5504 19.6718 25.3596 19.531 25.219L16.312 22L19.531 18.781ZM22.219 26.281C22.1492 26.2113 22.0937 26.1286 22.0559 26.0375C22.0181 25.9463 21.9987 25.8487 21.9987 25.75C21.9987 25.6514 22.0181 25.5537 22.0559 25.4626C22.0937 25.3714 22.1492 25.2887 22.219 25.219L25.4395 22L22.219 18.781C22.0782 18.6402 21.9991 18.4492 21.9991 18.25C21.9991 18.0508 22.0782 17.8598 22.219 17.719C22.3598 17.5782 22.5508 17.4991 22.75 17.4991C22.9492 17.4991 23.1402 17.5782 23.281 17.719L27.031 21.469C27.1716 21.6096 27.2506 21.8004 27.2506 21.9993C27.2506 22.1981 27.1716 22.3889 27.031 22.5295L23.281 26.2795C23.2113 26.3493 23.1286 26.4048 23.0375 26.4426C22.9463 26.4804 22.8487 26.4998 22.75 26.4998C22.6514 26.4998 22.5537 26.4804 22.4626 26.4426C22.3714 26.4048 22.2887 26.3493 22.219 26.2795V26.281ZM30.7135 22.822L23.4685 30.067C23.0468 30.4892 22.7477 31.018 22.603 31.597L22.0405 33.844C21.985 34.0675 21.9883 34.3015 22.05 34.5234C22.1117 34.7452 22.2297 34.9473 22.3926 35.11C22.5555 35.2728 22.7577 35.3906 22.9796 35.4521C23.2015 35.5136 23.4356 35.5167 23.659 35.461L25.906 34.9C26.4852 34.7551 27.0141 34.4554 27.436 34.033L34.681 26.788C35.2002 26.2605 35.4899 25.5491 35.4869 24.809C35.4839 24.0688 35.1884 23.3598 34.6649 22.8366C34.1415 22.3133 33.4324 22.0181 32.6922 22.0154C31.9521 22.0127 31.2408 22.3026 30.7135 22.822Z" fill="#FE6F6F"/>
</svg>
