<svg width="44" height="44" viewBox="0 0 44 44" fill="none" xmlns="http://www.w3.org/2000/svg">
<rect opacity="0.2" width="44" height="44" rx="5" fill="#2E62CC"/>
<path d="M34.0138 13.6681L22.4578 10.07C22.1618 9.97667 21.8413 9.97667 21.5453 10.07L9.98927 13.6681C9.71353 13.7534 9.47173 13.9144 9.29543 14.13C9.11913 14.3456 9.01652 14.6059 9.00099 14.8768C8.99967 14.9004 8.99967 14.9241 9.00099 14.9477V23.943C9.00099 24.3008 9.15318 24.644 9.42407 24.8971C9.69497 25.1501 10.0624 25.2923 10.4455 25.2923C10.8286 25.2923 11.196 25.1501 11.4669 24.8971C11.7378 24.644 11.89 24.3008 11.89 23.943V16.8198L14.7441 17.7081C13.8583 19.2918 13.5951 21.1155 14.0002 22.8618C14.4054 24.6081 15.4532 26.1665 16.9614 27.2656C14.9878 28.1747 13.3174 29.5701 12.1307 31.3011C12.0239 31.4495 11.9497 31.6162 11.9124 31.7916C11.8751 31.967 11.8755 32.1475 11.9136 32.3228C11.9517 32.498 12.0267 32.6644 12.1342 32.8124C12.2418 32.9603 12.3797 33.0868 12.5401 33.1845C12.7004 33.2822 12.88 33.3491 13.0682 33.3814C13.2565 33.4137 13.4498 33.4107 13.6369 33.3727C13.8239 33.3346 14.001 33.2622 14.1578 33.1596C14.3146 33.057 14.448 32.9264 14.5503 32.7752C16.2681 30.306 18.9921 28.8904 22.0015 28.8904C25.0109 28.8904 27.735 30.306 29.4588 32.7752C29.5611 32.9264 29.6945 33.057 29.8513 33.1596C30.0081 33.2622 30.1852 33.3346 30.3722 33.3727C30.5593 33.4107 30.7526 33.4137 30.9408 33.3814C31.1291 33.3491 31.3087 33.2822 31.469 33.1845C31.6293 33.0868 31.7673 32.9603 31.8748 32.8124C31.9824 32.6644 32.0574 32.498 32.0955 32.3228C32.1336 32.1475 32.134 31.967 32.0967 31.7916C32.0594 31.6162 31.9852 31.4495 31.8783 31.3011C30.6905 29.5681 29.018 28.1714 27.0417 27.2622C28.5498 26.1631 29.5977 24.6048 30.0028 22.8585C30.408 21.1122 30.1447 19.2885 29.259 17.7047L34.0138 16.2239C34.3011 16.1341 34.5508 15.9623 34.7278 15.7326C34.9048 15.503 35 15.2272 35 14.9443C35 14.6614 34.9048 14.3856 34.7278 14.156C34.5508 13.9263 34.3011 13.7545 34.0138 13.6647V13.6681ZM22.0015 12.7686L28.9893 14.9477L22.0015 17.1234L15.0198 14.9477L22.0015 12.7686ZM27.2981 21.2444C27.2982 22.0128 27.1067 22.7708 26.7388 23.4581C26.3708 24.1454 25.8365 24.7432 25.1782 25.2041C24.5199 25.665 23.7557 25.9763 22.9463 26.1134C22.1368 26.2504 21.3042 26.2095 20.5146 25.9938C19.725 25.778 19.0001 25.3934 18.3972 24.8705C17.7944 24.3476 17.3303 23.7006 17.0417 22.981C16.753 22.2614 16.6479 21.4889 16.7344 20.7247C16.821 19.9605 17.097 19.2257 17.5404 18.5784L21.5453 19.8254C21.8413 19.9184 22.1618 19.9184 22.4578 19.8254L26.4626 18.5784C27.0089 19.3739 27.2989 20.2993 27.2981 21.2444Z" fill="#2E62CC"/>
</svg>
