<svg width="14" height="11" viewBox="0 0 14 11" fill="none" xmlns="http://www.w3.org/2000/svg">
<path d="M13.4486 1.28571C12.9536 1.51071 12.42 1.65857 11.8671 1.72929C12.4329 1.38857 12.87 0.848571 13.0757 0.199286C12.5421 0.520714 11.9507 0.745714 11.3271 0.874286C10.8193 0.321429 10.1057 0 9.29571 0C7.785 0 6.55071 1.23429 6.55071 2.75786C6.55071 2.97643 6.57643 3.18857 6.62143 3.38786C4.33286 3.27214 2.295 2.17286 0.938571 0.507857C0.700714 0.912857 0.565714 1.38857 0.565714 1.89C0.565714 2.84786 1.04786 3.69643 1.79357 4.17857C1.33714 4.17857 0.912857 4.05 0.54 3.85714V3.87643C0.54 5.21357 1.49143 6.33214 2.75143 6.58286C2.3469 6.69356 1.9222 6.70897 1.51071 6.62786C1.68532 7.17588 2.02727 7.6554 2.48851 7.99903C2.94975 8.34265 3.50707 8.53309 4.08214 8.54357C3.10733 9.31528 1.899 9.73242 0.655714 9.72643C0.437143 9.72643 0.218571 9.71357 0 9.68786C1.22143 10.4721 2.67429 10.9286 4.23 10.9286C9.29571 10.9286 12.0793 6.72429 12.0793 3.07929C12.0793 2.95714 12.0793 2.84143 12.0729 2.71929C12.6129 2.33357 13.0757 1.845 13.4486 1.28571Z" fill="white"/>
</svg>
