<svg width="84" height="86" viewBox="0 0 84 86" fill="none" xmlns="http://www.w3.org/2000/svg">
<path d="M63.06 0H20C8.9543 0 0 8.9543 0 20V65.92C0 76.9657 8.9543 85.92 20 85.92H63.06C74.1057 85.92 83.06 76.9657 83.06 65.92V20C83.06 8.9543 74.1057 0 63.06 0Z" fill="white"/>
<path d="M28.1906 51.9685H23.3906C21.1815 51.9685 19.3906 53.7594 19.3906 55.9685V64.7185C19.3906 66.9276 21.1815 68.7185 23.3906 68.7185H28.1906C30.3998 68.7185 32.1906 66.9276 32.1906 64.7185V55.9685C32.1906 53.7594 30.3998 51.9685 28.1906 51.9685Z" fill="#FE6F6F"/>
<path d="M44.0305 41.9085H39.2305C37.0213 41.9085 35.2305 43.6994 35.2305 45.9085V64.7185C35.2305 66.9276 37.0213 68.7185 39.2305 68.7185H44.0305C46.2396 68.7185 48.0305 66.9276 48.0305 64.7185V45.9085C48.0305 43.6994 46.2396 41.9085 44.0305 41.9085Z" fill="#FE6F6F"/>
<path d="M59.8801 31.3285H55.0801C52.8709 31.3285 51.0801 33.1194 51.0801 35.3285V64.7185C51.0801 66.9276 52.8709 68.7185 55.0801 68.7185H59.8801C62.0892 68.7185 63.8801 66.9276 63.8801 64.7185V35.3285C63.8801 33.1194 62.0892 31.3285 59.8801 31.3285Z" fill="#FE6F6F"/>
<path d="M19 46.8285L30 34.8285L41 35.8285L55.81 21.8885" stroke="#FE6F6F" stroke-width="3" stroke-linecap="round" stroke-linejoin="round"/>
<path d="M52.8908 19.2785L57.7508 24.7085C57.8571 24.8582 58.0025 24.9758 58.1712 25.0484C58.3398 25.1209 58.5252 25.1457 58.707 25.1198C58.8888 25.094 59.0599 25.0187 59.2017 24.902C59.3435 24.7853 59.4505 24.6319 59.5108 24.4585L61.2208 18.4585C61.3069 18.2915 61.3443 18.1037 61.3286 17.9165C61.3129 17.7293 61.2448 17.5503 61.1321 17.4C61.0194 17.2497 60.8666 17.1342 60.6913 17.0667C60.516 16.9993 60.3252 16.9825 60.1408 17.0185L53.5608 17.5885C53.3696 17.5985 53.1853 17.6632 53.0299 17.7749C52.8744 17.8866 52.7542 18.0406 52.6837 18.2185C52.6131 18.3965 52.5951 18.591 52.6318 18.7788C52.6686 18.9667 52.7585 19.1402 52.8908 19.2785Z" fill="#FE6F6F"/>
</svg>
