<svg width="73" height="75" viewBox="0 0 73 75" fill="none" xmlns="http://www.w3.org/2000/svg">
<path d="M52.39 0H20C8.9543 0 0 8.9543 0 20V54.89C0 65.9357 8.9543 74.89 20 74.89H52.39C63.4357 74.89 72.39 65.9357 72.39 54.89V20C72.39 8.9543 63.4357 0 52.39 0Z" fill="white"/>
<path d="M54.9375 18.5305C54.9192 18.4527 54.8795 18.3815 54.823 18.325C54.7665 18.2684 54.6953 18.2288 54.6174 18.2105C49.5074 16.9605 37.6875 21.4205 31.2775 27.8205C30.1347 28.9534 29.094 30.1848 28.1675 31.5005C26.2618 31.2642 24.3273 31.5047 22.5375 32.2005C17.7875 34.2905 16.3975 39.7505 16.0175 42.0905C15.9944 42.2017 15.9942 42.3164 16.0167 42.4277C16.0393 42.539 16.0841 42.6446 16.1486 42.738C16.2131 42.8315 16.2959 42.9109 16.392 42.9715C16.488 43.0321 16.5953 43.0725 16.7074 43.0905C16.7834 43.1053 16.8616 43.1053 16.9375 43.0905L24.5675 42.2505C24.5709 42.8251 24.6043 43.3993 24.6675 43.9705C24.708 44.3677 24.8846 44.7387 25.1675 45.0205L28.1174 47.9605C28.3968 48.2468 28.7691 48.4241 29.1675 48.4605C29.7352 48.527 30.3059 48.5637 30.8774 48.5705L30.0475 56.1805C30.035 56.2901 30.0442 56.4012 30.0746 56.5073C30.105 56.6134 30.156 56.7125 30.2247 56.7988C30.2935 56.8852 30.3785 56.9572 30.4751 57.0106C30.5717 57.0641 30.6778 57.098 30.7875 57.1105C30.8634 57.1256 30.9415 57.1256 31.0175 57.1105C33.3675 56.7405 38.8275 55.3605 40.9075 50.6105C41.6013 48.8237 41.8451 46.8937 41.6174 44.9905C42.9343 44.0615 44.1689 43.021 45.3075 41.8805C51.7675 35.4205 56.1675 23.9005 54.9375 18.5305ZM38.9375 34.2205C38.3522 33.6342 37.9537 32.8876 37.7925 32.075C37.6313 31.2624 37.7147 30.4203 38.032 29.655C38.3493 28.8898 38.8864 28.2357 39.5753 27.7756C40.2642 27.3155 41.074 27.0699 41.9025 27.0699C42.7309 27.0699 43.5407 27.3155 44.2296 27.7756C44.9185 28.2357 45.4556 28.8898 45.773 29.655C46.0903 30.4203 46.1736 31.2624 46.0125 32.075C45.8513 32.8876 45.4528 33.6342 44.8674 34.2205C44.0802 35.0052 43.014 35.4458 41.9025 35.4458C40.7909 35.4458 39.7248 35.0052 38.9375 34.2205Z" fill="#FFAA53"/>
<path d="M27.9167 50.0805C27.2903 50.5622 26.5352 50.8475 25.7467 50.9005C25.2631 50.9848 24.7663 50.9515 24.2982 50.8034C23.8302 50.6553 23.4046 50.3968 23.0575 50.0497C22.7104 49.7026 22.4519 49.277 22.3038 48.809C22.1558 48.3409 22.1224 47.8441 22.2067 47.3605C22.3413 46.5905 22.6232 45.8538 23.0367 45.1905C23.1064 45.1179 23.1453 45.0211 23.1453 44.9205C23.1453 44.8199 23.1064 44.7231 23.0367 44.6505C22.9932 44.6091 22.9409 44.5778 22.8839 44.5588C22.8269 44.5398 22.7664 44.5335 22.7067 44.5405C21.5443 44.6827 20.4633 45.2109 19.6367 46.0405C17.5867 48.0405 17.3867 55.7205 17.3867 55.7205C17.3867 55.7205 25.0268 55.5205 27.0768 53.4705C27.9064 52.644 28.4346 51.5629 28.5768 50.4005C28.58 50.3227 28.5603 50.2456 28.5203 50.1788C28.4803 50.1119 28.4216 50.0582 28.3516 50.0243C28.2815 49.9903 28.203 49.9775 28.1257 49.9875C28.0485 49.9975 27.9759 50.0298 27.9167 50.0805Z" fill="#FFAA53"/>
</svg>
