<svg width="98" height="101" viewBox="0 0 98 101" fill="none" xmlns="http://www.w3.org/2000/svg">
<path d="M77.49 0H20C8.9543 0 0 8.9543 0 20V80.85C0 91.8957 8.9543 100.85 20 100.85H77.49C88.5357 100.85 97.49 91.8957 97.49 80.85V20C97.49 8.9543 88.5357 0 77.49 0Z" fill="#FFAA53"/>
<path d="M61 29.0802H51.52C50.638 29.0801 49.7883 29.4122 49.14 30.0102L38.3 39.9402C37.4526 40.7302 36.9519 41.8231 36.907 42.9807C36.862 44.1383 37.2765 45.2668 38.06 46.1202C38.8702 46.931 39.9538 47.4102 41.0988 47.4639C42.2438 47.5175 43.3676 47.1417 44.25 46.4102H44.3L53.11 38.3402C53.4548 38.0246 53.9108 37.8588 54.3778 37.8795C54.8448 37.9001 55.2844 38.1054 55.6 38.4502C55.9156 38.795 56.0813 39.251 56.0607 39.718C56.04 40.1849 55.8348 40.6246 55.49 40.9402L52.61 43.5802L68.67 56.5802C68.9815 56.837 69.2724 57.1179 69.54 57.4202V36.1402L63.54 30.1402C63.2102 29.801 62.8151 29.5322 62.3785 29.35C61.942 29.1678 61.473 29.076 61 29.0802ZM73.06 39.0802V60.8202C73.06 61.7564 73.4319 62.6543 74.0939 63.3163C74.7559 63.9783 75.6538 64.3502 76.59 64.3502H80.73C81.113 64.3502 81.4922 64.2746 81.8459 64.1277C82.1997 63.9808 82.5208 63.7656 82.7912 63.4943C83.0615 63.223 83.2757 62.9011 83.4214 62.5469C83.567 62.1926 83.6413 61.8131 83.64 61.4302V39.0802C83.6413 38.6972 83.567 38.3177 83.4214 37.9635C83.2757 37.6093 83.0615 37.2873 82.7912 37.016C82.5208 36.7448 82.1997 36.5295 81.8459 36.3826C81.4922 36.2358 81.113 36.1602 80.73 36.1602H75.97C75.582 36.1522 75.1963 36.2218 74.8356 36.3651C74.475 36.5084 74.1466 36.7224 73.8698 36.9945C73.5931 37.2666 73.3736 37.5913 73.2242 37.9494C73.0748 38.3076 72.9986 38.6921 73 39.0802H73.06ZM78.3 60.8202C77.9495 60.8222 77.6063 60.72 77.3139 60.5267C77.0215 60.3335 76.7931 60.0577 76.6576 59.7345C76.5221 59.4112 76.4856 59.055 76.5528 58.711C76.62 58.367 76.7877 58.0507 77.0349 57.8022C77.282 57.5536 77.5974 57.3841 77.941 57.315C78.2846 57.2458 78.641 57.2803 78.965 57.414C79.289 57.5477 79.5661 57.7745 79.761 58.0658C79.9559 58.3571 80.06 58.6997 80.06 59.0502C80.0613 59.2821 80.0168 59.5121 79.9289 59.7268C79.841 59.9414 79.7116 60.1367 79.548 60.3012C79.3845 60.4657 79.19 60.5962 78.9758 60.6853C78.7616 60.7743 78.532 60.8202 78.3 60.8202ZM16.47 64.3402H20.06C20.9962 64.3402 21.8941 63.9683 22.5561 63.3063C23.2181 62.6443 23.59 61.7464 23.59 60.8102V39.3702C23.59 38.5188 23.2518 37.7023 22.6498 37.1004C22.0478 36.4984 21.2313 36.1602 20.38 36.1602H16.47C16.0143 36.1602 15.5631 36.2499 15.1421 36.4243C14.7211 36.5987 14.3386 36.8543 14.0164 37.1765C13.6941 37.4987 13.4385 37.8813 13.2642 38.3023C13.0898 38.7233 13 39.1745 13 39.6302V60.9102C13 61.3659 13.0898 61.8171 13.2642 62.2381C13.4385 62.6591 13.6941 63.0416 14.0164 63.3638C14.3386 63.6861 14.7211 63.9417 15.1421 64.116C15.5631 64.2904 16.0143 64.3802 16.47 64.3802V64.3402ZM18.29 57.2902C18.6409 57.2882 18.9845 57.3906 19.2771 57.5843C19.5697 57.778 19.7981 58.0544 19.9333 58.3782C20.0686 58.702 20.1044 59.0587 20.0364 59.403C19.9685 59.7473 19.7997 60.0636 19.5516 60.3117C19.3034 60.5599 18.9871 60.7286 18.6428 60.7966C18.2985 60.8646 17.9419 60.8287 17.618 60.6935C17.2942 60.5583 17.0179 60.3299 16.8242 60.0373C16.6304 59.7447 16.5281 59.4011 16.53 59.0502C16.5405 58.5904 16.7305 58.1529 17.0594 57.8314C17.3884 57.51 17.83 57.3301 18.29 57.3302V57.2902ZM66.38 59.3402L49.91 45.9702L46.6 48.9702C45.0471 50.3931 42.9926 51.1408 40.8885 51.0489C38.7843 50.957 36.8029 50.033 35.38 48.4802C33.9571 46.9273 33.2094 44.8728 33.3013 42.7687C33.3932 40.6645 34.3172 38.6831 35.87 37.2602L44.87 29.0002H35.63C34.6975 28.9912 33.7991 29.3505 33.13 30.0002L27.13 36.0002V60.8202H29.13L39.13 69.8202C40.5797 71.0036 42.44 71.563 44.302 71.3755C46.164 71.188 47.8754 70.2689 49.06 68.8202L51.06 70.5302C51.4775 70.8704 51.958 71.1251 52.474 71.2796C52.99 71.4342 53.5314 71.4855 54.0673 71.4307C54.6031 71.3759 55.1229 71.2161 55.5969 70.9603C56.071 70.7046 56.49 70.3579 56.83 69.9402L60.3 65.6802L60.89 66.1702C61.2517 66.4662 61.6684 66.6876 62.116 66.8218C62.5637 66.9559 63.0335 67.0001 63.4984 66.9518C63.9632 66.9034 64.4139 66.7635 64.8243 66.5401C65.2348 66.3167 65.597 66.0142 65.89 65.6502L66.89 64.3602C67.4827 63.6321 67.762 62.6985 67.6663 61.7646C67.5707 60.8307 67.108 59.973 66.38 59.3802V59.3402Z" fill="#2E62CC"/>
</svg>
