<svg width="89" height="92" viewBox="0 0 89 92" fill="none" xmlns="http://www.w3.org/2000/svg">
<path d="M68.52 0H20C8.9543 0 0 8.9543 0 20V71.57C0 82.6157 8.9543 91.57 20 91.57H68.52C79.5657 91.57 88.52 82.6157 88.52 71.57V20C88.52 8.9543 79.5657 0 68.52 0Z" fill="white"/>
<path d="M42.38 18V21.91C42.3927 22.4232 42.6021 22.9118 42.9651 23.2748C43.3281 23.6378 43.8168 23.8473 44.33 23.86C44.8518 23.8601 45.3531 23.6563 45.7268 23.292C46.1005 22.9277 46.3169 22.4317 46.33 21.91V18C46.33 17.4696 46.1192 16.9609 45.7441 16.5858C45.3691 16.2107 44.8604 16 44.33 16C43.8082 16.013 43.3123 16.2295 42.948 16.6032C42.5837 16.9768 42.3798 17.4781 42.38 18ZM26.76 28.91L23.6599 25.81C23.288 25.4554 22.7938 25.2576 22.2799 25.2576C21.766 25.2576 21.2719 25.4554 20.8999 25.81C20.5453 26.182 20.3475 26.6761 20.3475 27.19C20.3475 27.7039 20.5453 28.198 20.8999 28.57L23.99 31.67C24.3624 32.0275 24.8587 32.2271 25.375 32.2271C25.8913 32.2271 26.3876 32.0275 26.76 31.67C27.1146 31.298 27.3124 30.8039 27.3124 30.29C27.3124 29.7761 27.1146 29.282 26.76 28.91ZM64.6599 31.67L67.76 28.57C68.1146 28.198 68.3124 27.7039 68.3124 27.19C68.3124 26.6761 68.1146 26.182 67.76 25.81C67.3881 25.4554 66.8939 25.2576 66.38 25.2576C65.8661 25.2576 65.372 25.4554 65 25.81L61.9099 28.91C61.7273 29.0904 61.5824 29.3053 61.4834 29.5422C61.3844 29.7791 61.3335 30.0333 61.3335 30.29C61.3335 30.5467 61.3844 30.8009 61.4834 31.0378C61.5824 31.2747 61.7273 31.4895 61.9099 31.67C62.2814 32.0216 62.7734 32.2176 63.2849 32.2176C63.7964 32.2176 64.2885 32.0216 64.6599 31.67ZM44.33 27.76C40.6066 27.7589 37.008 29.1016 34.1953 31.5413C31.3827 33.981 29.545 37.3538 29.02 41.04V41.31C28.7242 43.363 28.8454 45.4546 29.3763 47.4597C29.9073 49.4648 30.837 51.3423 32.11 52.98C33.6 54.92 34.61 56.76 34.61 58.61V64.86C34.61 65.3904 34.8207 65.8991 35.1958 66.2742C35.5709 66.6493 36.0796 66.86 36.61 66.86H52.23C52.7604 66.86 53.2691 66.6493 53.6442 66.2742C54.0192 65.8991 54.23 65.3904 54.23 64.86V58.61C54.23 56.76 55.23 54.92 56.73 52.98C58.0017 51.3419 58.93 49.464 59.4592 47.4589C59.9884 45.4537 60.1077 43.3624 59.8099 41.31V41.04C59.283 37.3238 57.4213 33.9265 54.5726 31.4827C51.7239 29.0388 48.083 27.7155 44.33 27.76ZM17 47.29H20.8999C21.4303 47.29 21.9391 47.0793 22.3142 46.7042C22.6893 46.3291 22.8999 45.8204 22.8999 45.29C22.8869 44.7683 22.6704 44.2723 22.2968 43.908C21.9231 43.5437 21.4218 43.3398 20.8999 43.34H17C16.4781 43.3398 15.9768 43.5437 15.6031 43.908C15.2295 44.2723 15.013 44.7683 15 45.29C15 45.8204 15.2106 46.3291 15.5857 46.7042C15.9608 47.0793 16.4696 47.29 17 47.29ZM67.76 47.29H71.6599C72.1903 47.29 72.6991 47.0793 73.0742 46.7042C73.4493 46.3291 73.6599 45.8204 73.6599 45.29C73.6469 44.7683 73.4304 44.2723 73.0568 43.908C72.6831 43.5437 72.1818 43.3398 71.6599 43.34H67.76C67.2381 43.3398 66.7368 43.5437 66.3632 43.908C65.9895 44.2723 65.7731 44.7683 65.76 45.29C65.76 45.8204 65.9706 46.3291 66.3457 46.7042C66.7208 47.0793 67.2296 47.29 67.76 47.29ZM37 74.62H51.6599C52.1903 74.62 52.6991 74.4093 53.0742 74.0342C53.4493 73.6591 53.6599 73.1504 53.6599 72.62C53.6599 72.0896 53.4493 71.5809 53.0742 71.2058C52.6991 70.8307 52.1903 70.62 51.6599 70.62H37C36.4696 70.62 35.9608 70.8307 35.5857 71.2058C35.2106 71.5809 35 72.0896 35 72.62C35 72.8826 35.0517 73.1427 35.1522 73.3853C35.2527 73.628 35.4 73.8485 35.5857 74.0342C35.7714 74.2199 35.992 74.3672 36.2346 74.4677C36.4773 74.5683 36.7374 74.62 37 74.62Z" fill="#39B590"/>
</svg>
